<?xml version="1.0" encoding="UTF-8" standalone="no"?>
<svg
   xmlns:dc="http://purl.org/dc/elements/1.1/"
   xmlns:cc="http://creativecommons.org/ns#"
   xmlns:rdf="http://www.w3.org/1999/02/22-rdf-syntax-ns#"
   xmlns:svg="http://www.w3.org/2000/svg"
   xmlns="http://www.w3.org/2000/svg"
   xmlns:sodipodi="http://sodipodi.sourceforge.net/DTD/sodipodi-0.dtd"
   xmlns:inkscape="http://www.inkscape.org/namespaces/inkscape"
   width="2500px"
   height="426px"
   viewBox="0 0 2500 426"
   version="1.1"
   id="svg283"
   sodipodi:docname="banner-ing.svg"
   inkscape:version="1.0 (4035a4fb49, 2020-05-01)">
  <metadata
     id="metadata287">
    <rdf:RDF>
      <cc:Work
         rdf:about="">
        <dc:format>image/svg+xml</dc:format>
        <dc:type
           rdf:resource="http://purl.org/dc/dcmitype/StillImage" />
        <dc:title>banner-cs</dc:title>
      </cc:Work>
    </rdf:RDF>
  </metadata>
  <sodipodi:namedview
     inkscape:document-rotation="0"
     pagecolor="#ffffff"
     bordercolor="#666666"
     borderopacity="1"
     objecttolerance="10"
     gridtolerance="10"
     guidetolerance="10"
     inkscape:pageopacity="0"
     inkscape:pageshadow="2"
     inkscape:window-width="1366"
     inkscape:window-height="705"
     id="namedview285"
     showgrid="false"
     inkscape:zoom="0.4007626"
     inkscape:cx="705.14703"
     inkscape:cy="213"
     inkscape:window-x="-8"
     inkscape:window-y="-8"
     inkscape:window-maximized="1"
     inkscape:current-layer="banner-cs" />
  <!-- Generator: Sketch 45.2 (43514) - http://www.bohemiancoding.com/sketch -->
  <title
     id="title2">banner-cs</title>
  <desc
     id="desc4">Created with Sketch.</desc>
  <defs
     id="defs6">
    <rect
       x="999.91538"
       y="277.68397"
       width="98.088084"
       height="43.063061"
       id="rect307" />
    <rect
       x="4.9325217"
       y="156.78235"
       width="826.69643"
       height="183.54581"
       id="rect291" />
  </defs>
  <g
     id="Page-1"
     stroke="none"
     stroke-width="1"
     fill="none"
     fill-rule="evenodd"
     transform="translate(38.382875,-2.5588583)">
    <g
       id="banner-cs">
      <g
         id="escudoUnal"
         transform="translate(1691)">
        <rect
           id="Rectangle-path"
           x="0"
           y="0"
           width="808.5"
           height="425.20001" />
        <g
           id="Group"
           transform="translate(70,71)"
           fill-rule="nonzero">
          <path
             d="m 257.1,81.6 h 4.8 v 16.6 c 0,5.1 2.6,7 7.3,7 3,0 5.1,-1.8 5.1,-5.7 V 81.6 h 4.6 v 16.9 c 0,6.7 -3.9,10.4 -11.4,10.4 -6.5,0 -10.4,-3.1 -10.4,-9.2 V 81.6 Z M 308.7,109 294.4,88.5 v 20 H 290 V 81.7 h 4.8 l 13.6,19.9 V 81.7 h 4.3 v 26.5 z m 20.6,-0.6 h -4.8 V 81.6 h 4.8 z m 8.7,-26.5 4.9,-0.8 7.7,22.2 7.5,-21.7 h 4.9 l -10.2,26.6 -4.8,0.8 z m 33.7,-0.3 h 16.8 l -0.4,3.6 c -3.8,-0.1 -7.7,-0.1 -11.5,-0.2 v 8 h 10.7 l -0.5,3.2 -10.2,-0.2 v 8.9 l 12.7,-0.2 -0.4,3.7 H 371.8 V 81.6 Z m 31.7,15.7 v 11.1 h -4.8 V 81.6 h 9.2 c 5.8,0 9.2,2.3 9.2,6.8 0,3.7 -2.1,6.2 -4.9,7.6 l 7.1,12.4 h -5.4 l -5.6,-11.2 c -0.8,0.1 -1.5,0.2 -2.2,0.2 -0.8,0 -1.7,-0.1 -2.6,-0.1 z m 8.6,-7.5 c 0,-3.2 -1.8,-4.9 -5.9,-4.9 -1,0 -1.9,0 -2.8,0.1 v 9.1 c 1.1,0.1 2.2,0.2 3.6,0.2 2.7,-0.2 5.1,-1.3 5.1,-4.5 z m 15.7,-1.4 c 0,-4.2 4.1,-7.4 9.9,-7.4 3.2,0 6.2,0.4 8.1,1 l -0.9,3.9 c -2.6,-0.9 -5.4,-1.5 -8.5,-1.5 -2.5,0 -4.2,1.1 -4.2,3.3 0,2.1 1.6,3.3 5.9,5 6.8,2.7 8.3,4.7 8.3,8.2 0,4.8 -4.4,8.1 -11.3,8.1 -2.8,0 -5.9,-0.5 -7.9,-1.1 l 0.9,-4 c 2.7,1 5.7,1.7 9.1,1.7 2.4,0 4.5,-1.2 4.5,-3.3 0,-2.3 -1.2,-3.7 -6.2,-5.6 -5.4,-2.2 -7.7,-4.1 -7.7,-8.3 z m 33.3,20 h -4.8 V 81.6 h 4.8 z m 21,-26.8 c 8.3,0 13.6,4.5 13.6,12.6 0,9 -6.8,14.2 -15.8,14.2 h -7.1 V 81.6 h 9.3 z m -4.5,23.3 c 1.2,0.1 3.1,0.2 4.7,0.2 4.3,0 8.4,-2.5 8.4,-10 0,-7.1 -4.6,-10 -10.2,-10 h -3 v 19.8 z m 41.5,-3.8 h -10.5 l -2.6,7.3 h -4.8 l 10.3,-26.7 5,-0.7 10.2,27.3 h -5.1 z m -5.3,-15 -4,11.4 h 8 z m 31,-4.5 c 8.3,0 13.6,4.5 13.6,12.6 0,9 -6.8,14.2 -15.8,14.2 h -7.1 V 81.6 h 9.3 z m -4.5,23.3 c 1.2,0.1 3.1,0.2 4.7,0.2 4.3,0 8.4,-2.5 8.4,-10 0,-7.1 -4.6,-10 -10.2,-10 h -3 v 19.8 z"
             id="Shape"
             fill="#565a5c" />
          <path
             d="m 292.7,185.6 -27.1,-38.8 v 37.8 h -8.3 v -50.7 h 9.1 l 25.8,37.6 v -37.6 h 8.2 V 184 Z m 54.9,-14.9 h -19.9 l -4.9,13.9 h -9 l 19.6,-50.5 9.4,-1.2 19.4,51.7 h -9.6 z m -10,-28.3 -7.6,21.6 h 15.2 z M 412,182 c -3.7,2.1 -10.6,3.6 -16.2,3.6 -14.6,0 -25.3,-8.8 -25.3,-25.9 0,-15.8 10.6,-26.9 26.9,-26.9 6.3,0 11.8,1 14.2,2.2 l -2.2,7.1 c -3.3,-1.1 -8.6,-2.6 -14.7,-2.6 -7.2,0 -14.8,4.3 -14.8,18.8 0,15.3 9.6,20.3 18.5,20.3 4.7,0 9.4,-1.3 11.7,-2.7 z m 23.7,2.5 h -9.1 v -50.7 h 9.1 z m 39,1.1 c -13.7,0 -23.2,-9.2 -23.2,-25.4 0,-17.3 11.4,-27.4 27.4,-27.4 13.7,0 23.2,9.3 23.2,25.5 0.1,17.1 -11.3,27.3 -27.4,27.3 z m 0.7,-46.1 c -8,0 -14.4,5.1 -14.4,18.3 0,15.1 7,21.1 17.3,21.1 8.1,0 14.5,-5 14.5,-18.4 -0.1,-15 -7.2,-21 -17.4,-21 z m 77.8,46.1 -27.1,-38.8 v 37.8 h -8.3 v -50.7 h 9.1 l 25.8,37.6 v -37.6 h 8.2 V 184 Z m 55,-14.9 h -19.9 l -4.9,13.9 h -9 L 594,134 l 9.4,-1.2 19.4,51.7 h -9.6 z m -10.1,-28.3 -7.6,21.6 h 15.2 z m 38.2,-8.6 h 9.1 v 44.1 l 22.1,-0.3 -0.9,6.9 h -30.3 v -50.7 z"
             id="path11"
             fill="#565a5c" />
          <path
             d="m 267.2,210.5 c 8.3,0 13.6,4.5 13.6,12.6 0,9 -6.8,14.2 -15.8,14.2 h -7.1 v -26.8 z m -4.5,23.2 c 1.2,0.1 3.1,0.2 4.7,0.2 4.3,0 8.4,-2.5 8.4,-10 0,-7.1 -4.6,-10 -10.2,-10 h -3 v 19.8 z m 27.6,-23.2 h 16.8 l -0.4,3.6 C 302.9,214 299,214 295.2,213.9 v 8 h 10.7 l -0.5,3.2 -10.2,-0.2 v 8.9 l 12.7,-0.2 -0.4,3.7 h -17.1 v -26.8 z"
             id="path13"
             fill="#565a5c" />
          <path
             d="m 350.8,235.9 c -2,1.1 -5.6,1.9 -8.6,1.9 -7.7,0 -13.3,-4.6 -13.3,-13.7 0,-8.4 5.6,-14.2 14.2,-14.2 3.3,0 6.2,0.5 7.5,1.1 l -1.1,3.8 c -1.7,-0.6 -4.5,-1.4 -7.8,-1.4 -3.8,0 -7.8,2.3 -7.8,10 0,8.1 5.1,10.7 9.8,10.7 2.5,0 5,-0.7 6.2,-1.4 z m 18.8,1.9 c -7.2,0 -12.3,-4.9 -12.3,-13.4 0,-9.1 6,-14.5 14.5,-14.5 7.2,0 12.3,4.9 12.3,13.5 0,9 -6,14.4 -14.5,14.4 z m 0.3,-24.3 c -4.2,0 -7.6,2.7 -7.6,9.7 0,8 3.7,11.2 9.1,11.2 4.3,0 7.7,-2.6 7.7,-9.7 0,-8.1 -3.7,-11.2 -9.2,-11.2 z m 23.9,-3 h 4.8 v 23.3 l 11.7,-0.2 -0.5,3.7 h -16 z m 35,27.3 c -7.2,0 -12.3,-4.9 -12.3,-13.4 0,-9.1 6,-14.5 14.5,-14.5 7.2,0 12.3,4.9 12.3,13.5 -0.1,9 -6.1,14.4 -14.5,14.4 z m 0.3,-24.3 c -4.2,0 -7.6,2.7 -7.6,9.7 0,8 3.7,11.2 9.1,11.2 4.3,0 7.7,-2.6 7.7,-9.7 0,-8.1 -3.8,-11.2 -9.2,-11.2 z m 28.5,3 -2,20.7 h -4.5 l 3.3,-26.8 h 5.1 l 8.3,21.4 8,-21.4 h 5.1 l 3.2,26.8 h -4.7 l -2.1,-20.8 -7.5,20 h -0.2 v 0.1 l -4.2,0.7 z m 36.7,-6 h 8.7 c 5.9,0 9.1,2.3 9.1,6.3 0,3 -1.9,5 -4.3,6.3 3,0.5 6.3,2.2 6.3,6.2 0,4.8 -4.4,7.9 -11.9,7.9 h -7.8 v -26.7 z m 13.1,7.7 c 0,-2.8 -1.5,-4.5 -6.1,-4.5 -0.5,0 -1.4,0 -2.2,0.1 v 8.3 c 1,0 2,0.1 2.8,0.1 4.2,0 5.5,-1.6 5.5,-4 z m 1.8,11.7 c 0,-3.1 -2.5,-4.8 -6.8,-4.8 -0.9,0 -2.2,0.1 -3.3,0.1 v 8.7 c 1.5,0.1 3.3,0.1 5,0.1 2.8,-0.1 5.1,-1.1 5.1,-4.1 z m 19.1,7.4 h -4.8 v -26.8 h 4.8 z m 26.2,-7.4 H 544 l -2.6,7.3 h -4.8 l 10.3,-26.7 5,-0.7 10.2,27.3 H 557 Z m -5.3,-14.9 -4,11.4 h 8 z"
             id="path15"
             fill="#565a5c" />
          <g
             id="g277"
             fill="#94b43b">
            <g
               transform="translate(0,16)"
               id="g173"
               style="fill:#000000">
              <path
                 d="m 207.8,96.4 c 0,-9.9 -4.7,-18.3 -12.3,-22 l -0.7,-0.3 0.3,0.7 c 0.2,0.5 0.2,0.9 0.2,1.4 0,2.4 -1.4,4.8 -3,7.5 -2.4,4.1 -5.5,9.1 -5.5,17 0,11.3 6.6,22.7 16.1,27.5 l 0.6,0.3 -0.3,-0.6 c -0.5,-1.2 -0.8,-2.7 -0.8,-4 0,-4.4 1.2,-8.8 2.5,-13.4 1.6,-4.6 2.9,-9.3 2.9,-14.1 z m -12,-13.7 c -1,4.3 -2.1,11.5 -2.2,15.2 -0.1,3.6 0.2,9.1 0.8,11.8 l 0.4,2 0.1,-2 c 0.3,-4.1 0.7,-8.2 1,-11.7 0.7,-7.2 1.4,-12.1 2.3,-15.8 0.8,3.6 1,8.7 1,11 0,5.8 -0.2,12.8 -1.5,22.7 v 0 c 2.5,-8.5 4.1,-17.2 4.1,-22.7 0,-3.7 -0.4,-8.7 -1,-11.7 2.8,3.9 4.3,9.1 4.3,15 0,4.5 -1.3,9 -2.6,13.4 -1.3,4.4 -2.6,9 -2.6,13.7 -7,-6.2 -10.5,-13.9 -10.5,-22.9 0.1,-6 2.3,-11.1 6.4,-18 z"
                 id="path17"
                 style="fill:#000000" />
              <path
                 d="m 153.6,58.9 c 0,3.3 1.9,6.4 3.7,7.9 l 0.4,0.3 0.1,-0.5 c 0.5,-3.2 5.7,-7.5 12.4,-8.5 h 0.1 0.1 c 5,-3.9 7.2,-10.9 7.2,-16.2 0,-7.2 -3.5,-12.1 -6.9,-16.8 -1.7,-2.4 -3.4,-4.8 -4.7,-7.5 1,0.4 2.2,0.6 3.7,0.6 4.4,0 7.7,-3.3 7.7,-7.6 0,-5.7 -4.7,-9.9 -11.1,-9.9 -8.1,0 -16.2,7 -16.2,22.7 0,3.9 0.7,17.3 9.6,27.7 -3.8,1 -6.1,4.1 -6.1,7.8 z m 14.7,-44.4 c 0.7,-0.6 1,-1.5 1,-2.4 0,-1.7 -1.2,-3.4 -3.4,-3.4 -2.1,0 -3.6,1.7 -3.6,4.1 0,4.4 2.8,8.4 5.7,12.7 3.4,4.9 6.9,10 6.9,16.4 0,3.1 -0.9,7.4 -2.9,10.3 0.5,-11.2 -2.8,-16.7 -6,-22 -1.8,-3 -4.1,-5.9 -5.3,-9.9 v 0 c 0.8,4.8 2.4,8.2 4,11.6 2.4,5.1 4.9,10.3 4.4,20.2 -12.5,-21.2 -12.7,-32.5 -11.4,-40 l 0.3,-2 -0.8,1.9 c -4,8.9 -0.7,23 9.7,42.1 -4,-0.6 -7.2,0.8 -8.6,3.8 l -0.4,1 0.8,-0.7 c 2.1,-1.6 4.9,-2.1 7.3,-1.3 -4.9,1.2 -7.2,3.3 -9.1,6.1 -0.7,-1 -1.1,-2.5 -1.1,-4.1 0,-3.4 2.4,-5.7 6.7,-6.7 l 0.4,-0.1 -0.3,-0.3 c -8.7,-10.4 -10.5,-21.2 -10.5,-28.4 0,-14 7.2,-20.3 13.9,-20.3 5.2,0 8.5,3 8.5,7.6 0,3.1 -2.3,5.5 -5.1,5.5 -1.7,0 -3,-0.2 -3.8,-0.7 1.4,-0.2 2.2,-0.6 2.7,-1 z"
                 id="path19"
                 style="fill:#000000" />
              <path
                 d="m 186.1,67.7 h 0.1 c 3.8,0 7.5,2.6 11.3,5.3 4.3,3.1 8.8,6.3 14.2,6.3 5.6,0 9.8,-3.8 9.8,-8.8 0,-5.3 -4.1,-8.5 -8,-8.5 -2.6,0 -4.4,1.3 -4.8,3.4 -1.1,-1.1 -2.3,-2.2 -4.1,-3 5.7,-3.3 8.9,-9.9 7.9,-16.1 v -0.1 l -0.1,-0.1 c -0.6,-0.3 -2.4,-0.8 -5.5,-0.8 -3.2,0 -6.8,1.2 -9.3,3 -0.1,-4 -1.1,-6.6 -2.1,-8.8 -0.8,-2 -1.6,-3.9 -1.6,-6.6 0,-1.3 0.2,-2.8 0.6,-4.3 l 0.1,-0.3 h -0.3 c -7.3,0.1 -14.9,7.9 -14.9,20.6 -0.2,6.6 2.6,14.1 6.7,18.8 z m 4.7,-36.5 c 0.1,0 0.2,-0.1 0.2,-0.1 0.2,-0.1 0.5,-0.2 0.7,-0.2 -0.2,0.7 -0.3,1.7 -0.3,2.6 0,2.2 0.7,4.1 1.5,6.1 1,2.4 2.1,5.2 2.1,9.2 0,2.4 -0.2,4 -0.6,5.3 l -0.5,1.6 1,-1.4 c 3.3,-4.5 7.4,-6.8 12.1,-6.8 1.2,0 2.1,0.1 3.1,0.3 0.2,4.9 -2.5,11.2 -10.7,14.6 l -0.9,0.4 0.9,0.1 c 4.6,0.7 6.6,2.7 8.2,4.2 1.2,1.2 2.2,2.2 4,2.2 1.8,0 3.1,-1.3 3.1,-3.1 0,-0.8 -0.3,-1.4 -0.9,-1.9 -0.1,-0.1 -0.3,-0.2 -0.4,-0.3 3.4,0 5.4,3.2 5.4,6.3 0,3.7 -3,6.4 -7.2,6.4 -4.4,0 -8.7,-2.9 -12.8,-5.8 -2,-1.4 -4.2,-2.8 -6.3,-3.9 2,0 5.4,0.2 8.4,2.1 l 0.6,0.4 c 5.5,3.5 10.3,6.6 13.8,2.3 l 1.4,-1.7 -1.8,1.3 c -3,2.3 -5.9,0.3 -10.4,-2.6 -0.9,-0.6 -1.7,-1.1 -2.7,-1.7 -2.8,-1.8 -6.9,-2 -9.1,-2.1 4.3,-2.4 8.8,-5.8 11,-8.5 l 1,-1.2 -1.4,0.8 c -1,0.6 -2,1.2 -3,1.9 -2.8,1.8 -5.7,3.6 -8.8,5.2 3.1,-4.3 8.6,-9 14.5,-12.7 l 1.6,-1 -1.8,0.5 c -5.6,1.6 -11.9,7 -16.1,11.9 0.9,-3.6 2.3,-10.8 1.7,-17.2 l -0.2,-2.2 -0.3,2.2 c -0.8,5.6 -2.1,11.5 -3.5,16.5 -1.4,-8.6 -0.9,-16.9 1.3,-25.3 l 0.4,-1.6 -0.9,1.4 c -3.6,5.5 -4.6,13.8 -3.3,25.9 -1.7,-3 -3.3,-8.4 -3.3,-12.9 0.1,-8.7 3.4,-15.1 9.2,-17.5 z"
                 id="path21"
                 style="fill:#000000" />
              <path
                 d="m 106,68.4 c 1,0 1.9,-0.9 2.7,-2.7 l 0.4,-0.8 -0.8,0.5 c -0.2,0.1 -0.4,0.2 -0.5,0.3 0.2,-0.3 0.4,-0.6 0.6,-1 l 0.4,-0.7 -0.7,0.4 c -2.2,1.1 -3.1,2 -3.1,3.2 -0.1,0.4 0.2,0.8 1,0.8 z"
                 id="path23"
                 style="fill:#000000" />
              <path
                 d="m 218.4,125.2 c -1.8,-1.7 -3.9,-2.5 -6.2,-2.4 -3.2,0.1 -5.3,2 -5.3,4.8 0,2.2 1.6,3.9 3.6,3.9 0.4,0 0.7,0 1,-0.1 -1.2,1.4 -3.5,1.5 -4.5,1.5 -6.4,0 -12.6,-4.4 -15.7,-11.2 l -0.3,-0.7 -0.2,0.8 c -0.5,2.4 -0.8,5 -0.8,8 0,6.3 1.8,11.6 5.3,15.2 3.1,3.3 7.4,5.1 12,5.1 8.7,0 14.9,-6.3 14.9,-14.9 0.1,-4 -1.3,-7.7 -3.8,-10 z m -11.2,17.7 c 4.4,0 8,-2.8 9.4,-7.4 l 0.7,-2.3 -1.2,2.1 c -2,3.5 -4.7,5 -8.9,5 -5.3,0 -10.7,-4.3 -12.9,-10.2 3.2,2.8 7,5.3 12.8,5.3 4.7,0 8,-2.7 8,-6.6 0,-2.1 -1.3,-3.7 -3.1,-3.8 0.1,0 0.2,0 0.3,0 4.2,0 7.5,4.5 7.5,10.2 0,7 -5.3,12.4 -12.4,12.4 -7.8,0 -13.2,-5.3 -14.7,-14.4 3.2,6.1 8.5,9.7 14.5,9.7 z"
                 id="path25"
                 style="fill:#000000" />
              <path
                 d="m 101.4,148.3 c 2.6,-1.9 2,-3.8 1.1,-5.5 L 99,135.2 h -1 l 2.7,7.7 c -0.1,0.3 -0.2,0.6 -0.3,1 -0.3,0.7 -0.6,1.6 -0.4,2.4 -1,-0.3 -2,0 -2.9,0.3 -0.6,0.2 -1.2,0.4 -1.8,0.4 h -0.6 l 0.4,0.4 c 1.2,1.3 2.2,2 3.4,2 0.9,0.1 1.8,-0.3 2.9,-1.1 z"
                 id="path27"
                 style="fill:#000000" />
              <path
                 d="m 96,145.3 c 0.4,0.3 0.9,0.4 1.4,0.4 0.3,0 0.6,-0.1 0.9,-0.2 v 0 c 0.7,-0.3 1.4,-0.8 1.4,-1.8 0,-2 -1.9,-3.5 -3.6,-4.3 v -8.8 h -0.9 v 0.2 c -0.3,4.6 -0.4,7.2 -0.5,8.8 -0.1,1.5 -0.1,2.1 -0.1,2.6 -0.1,1.3 0.5,2.5 1.4,3.1 z"
                 id="path29"
                 style="fill:#000000" />
              <path
                 d="m 111.6,140.4 c 2.8,0 5.4,-1.8 6,-4 l 4.9,-7.3 h -1.1 l -5.2,6.7 c -0.3,0.1 -0.6,0.2 -0.9,0.4 -1.5,0.6 -3,1.2 -3.7,2.1 -0.6,-0.9 -2.2,-1.5 -3.6,-2.1 -0.3,-0.1 -0.7,-0.3 -1,-0.4 l -5.2,-6.7 h -1.1 l 4.9,7.1 c 0.6,2.5 3.1,4.2 6,4.2 z"
                 id="path31"
                 style="fill:#000000" />
              <path
                 d="m 105,150.9 v 0 c 1.1,-1.3 1.7,-2.5 1.6,-3.7 -0.1,-1 -0.6,-2 -1.6,-2.9 l -0.4,-0.4 v 0.6 c 0,0.5 -0.4,1.2 -0.7,1.9 -0.5,0.9 -1,1.9 -0.8,2.7 -0.9,-0.1 -1.8,0.4 -2.6,0.9 -0.7,0.4 -1.3,0.8 -1.8,0.8 h -0.5 l 0.3,0.4 c 0.9,1.2 1.8,1.8 2.9,1.8 0,0 0.1,0 0.1,0 1.1,-0.1 2.3,-0.8 3.5,-2.1 z"
                 id="path33"
                 style="fill:#000000" />
              <path
                 d="m 111.6,136.3 c 2.5,0 4.9,-1.6 5.8,-3.8 l 3.5,-6.6 h -1.1 l -3.4,5.5 c -0.3,0.1 -0.6,0.3 -1,0.4 -1.5,0.6 -3.1,1.2 -3.9,2.3 -0.7,-1.1 -2.3,-1.7 -3.8,-2.3 -0.4,-0.1 -0.7,-0.3 -1,-0.4 l -3.6,-5.5 H 102 l 3.8,6.5 c 0.6,2.3 3,3.9 5.8,3.9 z"
                 id="path35"
                 style="fill:#000000" />
              <path
                 d="m 163.3,155 c -1.1,0 -2.2,0.3 -3.4,0.6 -1.3,0.3 -2.6,0.7 -4,0.7 -5.7,0 -9.5,-2.3 -12.4,-7.3 l -0.1,-0.1 h -3.1 l -2.2,3.1 0.1,0.1 c 0.8,1.4 1,2.6 1,3.5 0,1.3 -0.5,2.5 -1.1,4 -1,2.5 -2.2,5.6 -2.2,10.7 0,5.5 1.9,9.2 3.4,12.1 1.1,2.1 2,3.8 2,5.7 0,0.7 -0.4,1.4 -1.2,1.8 l -0.2,0.1 1.2,2.9 h 5.2 l 20.2,-31.6 c 0.3,-0.5 0.8,-1.6 0.8,-2.7 -0.2,-2 -1.9,-3.6 -4,-3.6 z m -5.2,4.4 v 7.5 l -1.7,2.4 v -9.7 c 0.6,0 1.2,-0.1 1.7,-0.2 z m 1.8,-0.4 c 0.4,-0.1 0.8,-0.3 1.1,-0.4 0.4,-0.2 0.7,-0.3 0.9,-0.3 0.3,0 0.6,0.2 0.8,0.5 0.2,0.4 0.2,0.8 0,1.1 l -2.9,4.2 V 159 Z m -5.3,0.7 v 12.4 l -1.7,2.4 v -14.9 c 0.7,0.1 1.2,0.1 1.7,0.1 z m -3.4,-0.4 v 17.9 l -1.8,2.7 v -21.2 c 0.1,0 0.2,0.1 0.4,0.1 0.3,0.2 0.8,0.3 1.4,0.5 z m -11.6,10.3 c 0,-4.4 0.9,-7 1.7,-9.5 0.7,-1.9 1.3,-3.7 1.4,-6.1 l 1.3,1.3 V 184 c -0.4,-1 -0.8,-1.9 -1.3,-2.9 -1.5,-2.9 -3.1,-6.1 -3.1,-11.5 z m 8,-11.8 v 24.7 l -1.8,2.7 v -28.5 c 0.6,0.5 1.3,0.9 1.8,1.1 z"
                 id="path37"
                 style="fill:#000000" />
              <path
                 d="m 111.6,128.7 c 1.1,0 2.2,-1.2 2.2,-2.3 0,-1 -0.3,-1.7 -0.8,-2.6 -0.2,-0.4 -0.4,-0.8 -0.6,-1.3 l -0.3,-5.1 h -1 l -0.3,5.1 c -0.2,0.5 -0.4,0.9 -0.6,1.3 -0.5,1 -0.8,1.6 -0.8,2.6 0,1.1 1.1,2.3 2.2,2.3 z"
                 id="path39"
                 style="fill:#000000" />
              <path
                 d="m 111.6,132.2 c 2.7,0 4.1,-1.9 5,-3.8 l 2.2,-6.3 h -0.9 l -2.5,5.2 c -0.2,0.1 -0.5,0.2 -0.7,0.3 -1.1,0.5 -2.5,1.1 -3.1,2.2 -0.6,-1.1 -2.1,-1.7 -3.5,-2.3 -0.2,-0.1 -0.4,-0.2 -0.5,-0.2 l -2.2,-5.2 h -0.9 l 2.2,6.3 c 0.4,1.8 2,3.8 4.9,3.8 z"
                 id="path41"
                 style="fill:#000000" />
              <path
                 d="m 118.9,152.7 c -0.8,-0.6 -1.6,-1.3 -2.6,-1.1 0.3,-1 0,-2 -0.3,-2.9 -0.2,-0.7 -0.5,-1.4 -0.4,-2.1 l 0.1,-0.5 -0.5,0.3 c -1,0.6 -1.8,1.8 -2,3.1 -0.1,1 0.1,2 0.7,2.7 l -1.4,1.1 v -7.7 c 2.6,-0.3 5.4,-2.1 5.9,-5 l 5.7,-8.3 H 123 l -6,7.5 c -0.3,0.1 -0.7,0.3 -1.1,0.4 -1.7,0.6 -3.6,1.2 -4.2,2.3 -0.7,-1.1 -2.6,-1.7 -4.2,-2.3 -0.4,-0.1 -0.8,-0.3 -1.1,-0.4 l -6,-7.5 h -1.1 l 5.7,8.3 c 0.6,2.9 3.3,4.7 5.9,5 v 7.7 l -1.4,-1.1 c 0.6,-0.7 0.8,-1.7 0.7,-2.7 -0.2,-1.3 -0.9,-2.5 -2,-3.1 l -0.5,-0.3 0.1,0.5 c 0.1,0.6 -0.1,1.3 -0.4,2.1 -0.3,0.9 -0.6,1.9 -0.3,2.9 -1,-0.3 -2,0.5 -2.8,1.2 -0.5,0.4 -1,0.8 -1.5,1 l -0.5,0.2 0.4,0.3 c 2,1.5 3.9,1.3 5.8,-0.6 l 1.6,1.2 -5.3,4 2.2,0.7 3.8,-2.9 v 4.3 l 0.9,0.4 0.9,-0.4 v -4.3 l 4.1,2.9 2.2,-0.7 -5.5,-4 1.6,-1.2 c 2,1.9 3.9,2.1 5.8,0.6 l 0.4,-0.3 -0.5,-0.1 c -0.7,-0.3 -1.3,-0.7 -1.8,-1.2 z"
                 id="path43"
                 style="fill:#000000" />
              <path
                 d="m 189.7,237.1 c -1.7,0 -3.4,0.3 -5.1,1 -2.6,-2.9 -6,-4.6 -9.5,-4.6 -4.5,0 -7.2,2.3 -7.2,5.9 0,1.5 0.5,2.8 1.3,3.8 -1.8,-0.8 -3.5,-1.6 -5.3,-2.4 -1.4,-0.6 -2.9,-1.3 -4.6,-2.1 -6.8,-3.1 -30.2,-13 -46.8,-13.3 8.5,-4.4 17,-7.3 25.2,-10.1 7.8,-2.6 15.2,-5.1 21.8,-8.8 8.8,-5.2 15,-11.7 19.4,-20.6 5.3,-10.6 8,-24.7 8.5,-43.1 v -0.3 h -0.3 c -6.1,0 -9,-2 -9,-6.2 0,-3.7 1.5,-5.9 8.7,-5.9 h 0.3 v -0.3 c 0,-5.6 -0.9,-10.1 -1.7,-14.5 -0.8,-4.3 -1.7,-8.7 -1.7,-14.1 0,-4.7 1.1,-14.2 8.4,-24.1 l 0.1,-0.1 -3,-5.8 -0.2,0.1 c -2.9,1 -6,0.3 -8.1,-1.7 -1.8,-1.8 -2.4,-4.7 -1.6,-7.7 l 0.1,-0.2 -6,-3.3 -0.1,0.1 c -9.6,9.1 -20.1,13.8 -30.5,13.8 -5.2,0 -13.2,-1 -21.5,-5.6 l -0.2,-0.1 -9.5,13 -9.5,-13 -0.2,0.1 c -8.3,4.7 -16.3,5.6 -21.5,5.6 -10.5,0 -20.7,-4.7 -30.5,-13.8 l -0.1,-0.1 -6,3.3 0.1,0.2 c 0.8,3 0.2,5.9 -1.6,7.7 -2.1,2.1 -5.2,2.7 -8.1,1.7 l -0.2,-0.1 -3,5.8 0.1,0.1 c 7.3,9.9 8.4,19.3 8.4,24.1 0,5.4 -0.8,9.8 -1.7,14.1 -0.8,4.4 -1.7,8.9 -1.7,14.5 v 0.3 h 0.3 c 7.3,0 8.8,2.3 8.8,5.9 0,4.2 -2.9,6.2 -9,6.2 h -0.3 v 0.3 c 0.5,18.4 3.3,32.5 8.5,43.1 4.4,8.9 10.6,15.4 19.4,20.6 6.6,3.6 14,6.1 21.8,8.8 8.2,2.8 16.6,5.6 25.2,10.1 -16.6,0.3 -40,10.2 -46.8,13.3 -1.7,0.7 -3.1,1.4 -4.5,2 -1.9,0.8 -3.5,1.6 -5.4,2.4 0.8,-1 1.3,-2.3 1.3,-3.8 0,-3.7 -2.8,-5.9 -7.2,-5.9 -3.5,0 -6.9,1.7 -9.5,4.6 -1.2,-0.5 -3,-1 -5.1,-1 -5.1,0 -8.2,2.7 -8.2,7.1 v 12.2 c 0,6.9 5.1,10.8 13.9,10.8 8,0 16.1,-3.4 28.8,-9 15.6,-6.9 27.9,-12.3 43.5,-12.3 15.6,0 28,5.4 43.5,12.3 12.7,5.6 20.8,9 28.8,9 8.8,0 13.9,-3.9 13.9,-10.8 v -12.2 c 0.1,-4.3 -3,-7 -8.1,-7 z M 40.4,116.2 c 0.8,-5.2 1.7,-10.5 1.7,-14.9 0,-7.6 -3.1,-16.6 -8.2,-24 l 1.4,-2.8 c 3.2,0.6 6.4,-0.4 8.7,-2.7 2,-2 3,-5.1 2.7,-8.3 L 49.6,62 c 9.8,8.9 20.2,13.5 30.9,13.5 7.3,0 14.7,-1.7 21,-4.8 l 8.6,12.1 v 31.7 c -3.4,2.5 -8.7,4 -13.9,4 -1.1,0 -2.3,-0.1 -3.3,-0.3 h -0.1 l -3.3,4 0.1,0.1 c 0.9,2.2 1.3,4.5 1.3,7.5 0,2 -0.2,3.7 -0.5,5.4 H 48 c -0.4,-4.1 -3.5,-6.6 -8.9,-7.2 -0.1,-3.1 0.6,-7.3 1.3,-11.8 z M 176.6,63.6 c -0.3,3.2 0.7,6.3 2.7,8.3 2.3,2.3 5.5,3.3 8.7,2.7 l 1.4,2.8 c -5.1,7.4 -8.2,16.4 -8.2,24 0,4.4 0.8,9.7 1.7,14.9 0.7,4.5 1.4,8.8 1.4,11.9 -5.4,0.6 -8.5,3.1 -8.9,7.2 H 133 c -0.2,-1.7 -0.5,-3.4 -0.5,-5.4 0,-3 0.4,-5.3 1.3,-7.5 l 0.1,-0.1 -3.3,-4 h -0.1 c -1,0.1 -2.1,0.3 -3.3,0.3 -5.2,0 -10.6,-1.5 -13.9,-4 V 83 l 8.6,-12.1 c 6.3,3.1 13.8,4.8 21,4.8 10.7,0 21.1,-4.5 30.9,-13.5 z m -42.5,150.3 c -7.1,2.4 -14.4,4.8 -20.9,8 v -56.8 c 17.2,-5.9 20.5,-12.6 20.5,-23.1 0,-1.3 -0.2,-2.6 -0.3,-3.6 0,-0.2 0,-0.4 -0.1,-0.5 h 42.1 c 0.3,3 2.1,6.6 9.1,7.2 -0.7,30.3 -9.4,49.7 -26.6,59.4 -7.1,3.9 -15.6,6.7 -23.8,9.4 z m -4.7,-93 1.5,1.8 -0.1,0.4 c -0.5,2.1 -0.9,4.1 -0.9,6.7 0,1.9 0.3,4.1 0.5,6.3 0.2,2 0.5,3.9 0.5,5.3 0,10 -2.9,15.7 -19.3,21.1 -16.4,-5.4 -19.3,-11.1 -19.3,-21.1 0,-1.5 0.2,-3.3 0.5,-5.3 0.3,-2.1 0.5,-4.4 0.5,-6.3 0,-2.6 -0.4,-4.6 -0.9,-6.7 l -0.1,-0.4 1.5,-1.8 h 0.1 c 0.7,0.1 1.2,0.2 1.9,0.2 6.3,0 11.4,-1.4 15.7,-4.3 4.3,2.9 9.5,4.3 15.7,4.3 0.7,0 1.3,-0.1 2,-0.2 z M 47.9,137.8 H 90 c 0,0.2 0,0.4 -0.1,0.5 -0.1,1 -0.3,2.3 -0.3,3.6 0,10.5 3.3,17.2 20.5,23.1 v 56.8 c -6.4,-3.2 -13.8,-5.6 -20.9,-8 -8.2,-2.7 -16.7,-5.5 -23.8,-9.5 -17.2,-9.7 -25.9,-29.1 -26.6,-59.4 6.9,-0.5 8.8,-4.1 9.1,-7.1 z M 37.7,247.4 c -4.6,0 -9.3,-1.8 -9.3,-4.8 0,-1.6 1.7,-3.2 4.9,-3.2 2.4,0 5,1.2 8.1,2.9 2.4,1.3 5.3,2.7 8.2,2.7 -3.9,1.5 -8.5,2.4 -11.9,2.4 z m 3.2,-8.2 c 1.6,-2 4.6,-3.4 7.2,-3.4 2.7,0 4.6,1.5 4.6,3.6 0,2 -1.1,3.2 -3,3.2 -2.7,0 -6.1,-1.9 -8.8,-3.4 z m 70.7,-11.1 c 13,0 33.2,7.1 46.6,13.1 11,5 19.4,8.5 27.3,8.5 5.6,0 8.1,-1.4 9.8,-2.9 v 9.6 c 0,5.2 -4.1,8.2 -11.3,8.2 -7.3,0 -15.7,-3.5 -27.8,-8.9 -17,-7.6 -29.2,-12.5 -44.5,-12.5 -15.3,0 -27.6,5 -44.5,12.5 -12.5,5.5 -20.6,8.9 -27.8,8.9 -7.2,0 -11.3,-3 -11.3,-8.2 v -9.6 c 1.6,1.5 4.2,2.9 9.8,2.9 7.8,0 16.2,-3.5 27.3,-8.5 13.2,-6 33.5,-13.1 46.4,-13.1 z m 62,17 c 2.9,0 5.9,-1.4 8.2,-2.7 3.1,-1.8 5.7,-2.9 8.1,-2.9 3.2,0 4.9,1.7 4.9,3.2 0,3 -4.7,4.8 -9.3,4.8 -3.4,-0.1 -8,-1 -11.9,-2.4 z m -3.1,-5.7 c 0,-2.1 1.9,-3.6 4.6,-3.6 2.6,0 5.6,1.4 7.2,3.4 -2.6,1.5 -6.1,3.4 -8.9,3.4 -1.8,0 -2.9,-1.2 -2.9,-3.2 z"
                 id="path45"
                 style="fill:#000000" />
              <path
                 d="m 177.3,226 c 0,2 1.6,3.4 4,3.4 2.6,0 5.2,-1.9 5.2,-5.5 0,-7.6 -8.4,-14 -18.3,-14 -6.5,0 -12.6,2.4 -20.3,5.5 -4.8,1.9 -10.2,4.1 -16.7,6.1 l -0.5,0.1 0.4,0.3 c 7.5,6.2 15.2,9.3 22.8,9.3 7.3,0 13.1,-2.9 17.7,-5.3 2.9,-1.5 5.4,-2.7 7.3,-2.7 -1,0.5 -1.6,1.6 -1.6,2.8 z m -8.5,-5.5 v 0 c -5,2.1 -12.8,3.1 -17.9,3.1 -1.2,0 -4.7,-0.1 -7.4,-0.2 5.7,-0.7 10.6,-2 14.9,-3.3 6.4,-1.8 12,-3.3 18.2,-2.4 l 2.1,0.3 -1.9,-0.8 c -1.8,-0.8 -5,-1.3 -7.8,-1.3 -4.2,0 -9,1.2 -14.1,2.4 -4.8,1.2 -9.8,2.4 -14.6,2.7 2.5,-0.9 5.2,-2 8,-3.1 7,-2.9 14.2,-5.8 20,-5.8 6.3,0 15.7,3.8 15.7,11.8 0,0 0,0.1 0,0.1 -0.7,-2.1 -2.6,-3.2 -5.7,-3.2 -2.4,0 -5.3,1.4 -8.5,3 -4.5,2.3 -9.7,4.8 -15.8,4.8 -4,0 -8.1,-0.9 -12.4,-2.8 8.2,0.4 17.4,0.1 27.2,-5.3 z"
                 id="path47"
                 style="fill:#000000" />
              <path
                 d="m 122.8,150.2 c -0.8,-0.5 -1.8,-1.1 -2.6,-0.9 0.2,-0.9 -0.3,-1.8 -0.7,-2.7 -0.4,-0.7 -0.7,-1.4 -0.7,-2 V 144 l -0.4,0.4 c -2.2,2.2 -2.2,4.4 0,6.8 v 0 c 1.2,1.3 2.4,2 3.5,2 0,0 0,0 0,0 1.1,0 2.1,-0.6 3,-1.7 l 0.4,-0.4 h -0.6 c -0.6,-0.1 -1.2,-0.5 -1.9,-0.9 z"
                 id="path49"
                 style="fill:#000000" />
              <path
                 d="m 186.1,175.6 -0.3,-0.2 -0.1,0.3 c -0.8,2.4 -1.4,5 -2,7.5 -2.2,8.9 -4.3,17.3 -13.4,19.7 l -0.3,0.1 0.1,0.3 c 1.7,4 6.6,5.8 10.4,5.8 4.2,0 8.4,-2.1 10.2,-5.2 0.4,1.9 1.2,3.8 1.9,5.6 0.8,2 1.5,3.8 1.5,5.1 0,0.6 0,1 -0.2,1.4 -0.5,-1.1 -1.6,-2 -3.4,-2 -1.8,0 -3.9,1.6 -3.9,3.9 0,3.2 2.6,5.4 6.4,5.4 6.5,0 13.1,-5.5 13.1,-17.8 0.2,-11 -5.9,-20 -20,-29.9 z m 4.7,15.4 v 0.6 c 0.1,5.6 -1.1,9.7 -3.6,12.2 -1.7,1.7 -4,2.6 -6.7,2.6 -2.6,0 -5.1,-1.2 -6.3,-2.2 5.9,-2.5 9.7,-8.7 12,-20.2 1.3,7.1 -1.8,16.1 -5.6,19.4 l -1,0.9 1.2,-0.4 c 5.7,-1.9 8.7,-11.7 8.3,-20.1 5.6,8 8.9,19 10.1,26.7 l 0.3,2.2 0.2,-2.2 c 0.7,-8.6 -2,-17.9 -7.8,-27.1 7.2,5.7 11.6,14 11.6,22.1 0,6.8 -2.5,12.2 -6.7,14.4 -1.7,0.9 -3.6,1.2 -5.2,0.7 1,0 1.9,-0.3 2.6,-0.9 1.4,-1 2.2,-2.9 2.2,-5 0,-2 -0.8,-3.9 -1.7,-6.3 -1.4,-3.6 -3.8,-7.5 -4,-15.8 l 0.1,-1.6 z"
                 id="path51"
                 style="fill:#000000" />
              <path
                 d="m 62.1,168.1 c 0,-4 1.5,-5.6 5.3,-5.7 0,0.6 0,1.2 0,1.7 0,3.8 0,7.1 -0.5,10.6 -0.6,4.1 -2.3,5.3 -4.8,7.2 l -0.4,0.3 3.3,3.6 0.2,-0.2 c 3.7,-3.2 5.4,-6.1 6,-10.3 0.5,-3.8 0.5,-7.2 0.5,-11.1 0,-0.6 0,-1.2 0,-1.8 h 7.4 c -0.5,8.7 -0.5,10.3 -0.5,14.9 0,5.1 2.3,7.7 6.7,7.7 2.1,0 3.4,-0.6 4.1,-1.1 l 0.1,-0.1 v -4 l -0.4,0.2 c -0.9,0.4 -1.5,0.6 -2.7,0.6 -1.6,0 -3.5,-0.5 -3.5,-4.4 0,-0.7 0,-1.2 0,-1.8 0,-2.5 0,-4.5 0.4,-12.1 h 5.8 v -4.1 H 68 c -6.6,0 -9.7,2.6 -10.4,8.7 v 0.2 l 4.5,1.2 z"
                 id="path53"
                 style="fill:#000000" />
              <path
                 d="m 125.9,146.9 c -0.9,-0.3 -1.8,-0.7 -2.7,-0.4 0.3,-0.9 0,-1.7 -0.3,-2.6 -0.1,-0.3 -0.2,-0.6 -0.3,-0.9 l 2.7,-7.5 h -0.9 l -3.5,7.6 c -1.3,1.9 -1,3.8 0.6,5 v 0 l 0.1,0.1 c 0.1,0 0.1,0.1 0.2,0.1 v 0 c 1.2,0.8 2.3,1.2 3.2,1.2 1.3,0 2.3,-0.7 3.3,-1.7 l 0.4,-0.4 H 128 c -0.8,0 -1.4,-0.3 -2.1,-0.5 z"
                 id="path55"
                 style="fill:#000000" />
              <path
                 d="m 127.2,139.5 c -1.2,0.7 -3.6,2.4 -3.6,4.3 0,0.9 0.6,1.8 1.5,2.1 0.2,0.1 0.5,0.1 0.7,0.1 0.5,0 1,-0.2 1.5,-0.5 0.9,-0.7 1.5,-1.9 1.5,-3.2 0,-0.5 0,-1.1 -0.1,-2.7 -0.1,-1.5 -0.3,-4 -0.5,-8.4 V 131 h -0.9 v 8.5 z"
                 id="path57"
                 style="fill:#000000" />
              <path
                 d="m 206.7,157.3 c -2.3,-2.2 -4.7,-3.8 -6.8,-5.2 -3.1,-2 -5.7,-3.8 -7.3,-6.6 l -0.3,-0.4 -0.2,0.5 c -1.6,3.5 -2.6,10 -2.6,14.3 0,10.4 4.2,16 8.6,20.8 l 0.6,0.7 c 3.1,3.6 6.7,7.7 9.1,14.8 l 0.1,0.3 0.3,-0.1 c 4.5,-2.4 7.6,-9.3 7.6,-16.8 0,-9 -3.1,-16.6 -9.1,-22.3 z m -1.5,22.3 c -0.4,-0.9 -0.9,-1.8 -1.3,-2.6 -3.6,-7.1 -7,-13.8 -8.8,-21.9 7.6,8.4 12.4,17.5 14.5,29.8 v 0 c -0.3,-15.2 -6.1,-24.3 -12.1,-31.2 10.1,5.9 15.7,15 15.7,25.8 0,7.2 -2.8,11.4 -4.1,12.9 -2.3,-4.7 -5.6,-9.5 -9.1,-13.3 l -0.3,-0.4 c -3.8,-4.8 -7.4,-9.3 -7.4,-18.8 0,-1.3 0,-2.1 0.1,-3.7 2.2,8.8 6.6,17.2 12.3,23.7 l 1.3,1.5 z"
                 id="path59"
                 style="fill:#000000" />
              <path
                 d="m 27.8,145 c 3.5,-3.7 5.3,-8.9 5.3,-15.2 0,-3.1 -0.3,-5.7 -0.8,-8 l -0.2,-0.8 -0.3,0.7 c -3.2,6.8 -9.3,11.2 -15.7,11.2 -1,0 -3.3,-0.2 -4.5,-1.5 0.3,0.1 0.6,0.1 1,0.1 2,0 3.6,-1.7 3.6,-3.9 0,-2.8 -2.1,-4.6 -5.3,-4.8 -2.3,-0.1 -4.4,0.7 -6.2,2.4 -2.4,2.3 -3.9,6 -3.9,9.9 0,8.7 6.3,14.9 14.9,14.9 4.7,0.1 9,-1.7 12.1,-5 z M 8.1,128.8 c 0,3.9 3.3,6.6 8,6.6 5.8,0 9.6,-2.5 12.8,-5.3 -2.3,5.9 -7.7,10.2 -12.9,10.2 -4.2,0 -6.9,-1.5 -8.9,-5 l -1.2,-2.1 0.7,2.3 c 1.4,4.6 5,7.4 9.4,7.4 6,0 11.3,-3.5 14.6,-9.8 -1.5,9 -7,14.4 -14.7,14.4 -7,0 -12.4,-5.3 -12.4,-12.4 0,-5.7 3.3,-10.2 7.5,-10.2 0.1,0 0.2,0 0.3,0 -1.9,0.2 -3.2,1.8 -3.2,3.9 z"
                 id="path61"
                 style="fill:#000000" />
              <path
                 d="m 36.4,217.8 c 0,-2.3 -2,-3.9 -3.9,-3.9 -1.9,0 -3,1 -3.4,2 -0.2,-0.3 -0.2,-0.7 -0.2,-1.4 0,-1.3 0.7,-3.1 1.5,-5.1 0.7,-1.7 1.5,-3.6 1.9,-5.6 1.8,3 5.9,5.2 10.2,5.2 3.8,0 8.7,-1.8 10.4,-5.8 l 0.1,-0.3 -0.3,-0.1 C 43.6,200.4 41.5,192 39.3,183.1 c -0.6,-2.5 -1.2,-5 -2,-7.5 l -0.1,-0.3 -0.3,0.2 c -14.2,9.9 -20.2,18.9 -20.2,29.8 0,12.3 6.6,17.8 13.1,17.8 4,0.1 6.6,-2.1 6.6,-5.3 z M 31,183.3 c -5.8,9.2 -8.5,18.6 -7.8,27.1 l 0.2,2.2 0.3,-2.2 c 1.2,-7.8 4.5,-18.7 10.1,-26.7 -0.4,8.4 2.6,18.2 8.3,20.1 l 1.2,0.4 -1,-0.9 c -3.8,-3.3 -6.9,-12.2 -5.6,-19.4 2.4,11.5 6.1,17.7 12,20.2 -1.2,1 -3.7,2.2 -6.3,2.2 -2.7,0 -5,-0.9 -6.7,-2.6 -2.4,-2.4 -3.6,-6.4 -3.6,-11.8 0,-0.3 0,-0.7 0,-1 h -0.5 c 0,0.3 0,0.7 0,1 -0.2,8.1 -2.1,12.9 -3.5,16.4 -1,2.3 -1.7,4.2 -1.7,6.3 0,2.1 0.8,4 2.2,5 0.8,0.6 1.7,0.9 2.6,0.9 -1.6,0.5 -3.4,0.2 -5.2,-0.7 -4.2,-2.3 -6.7,-7.7 -6.7,-14.4 0.1,-8 4.6,-16.4 11.7,-22.1 z"
                 id="path63"
                 style="fill:#000000" />
              <path
                 d="m 120,248.7 c -3,0 -5.5,0.8 -8.5,2.5 -2.6,-1.6 -4.9,-2.5 -8.2,-2.5 -6.3,0 -10.6,3 -10.6,7.5 0,3.5 3,5.7 5.9,5.7 2.7,0 4.4,-1.3 4.4,-3.4 0,-1.6 -1,-2.6 -2.6,-2.6 -0.8,0 -1.6,0.5 -2.1,1.2 -0.4,0.7 -0.5,1.5 -0.1,2.3 -1.7,-0.2 -2.9,-1.6 -2.9,-3.4 0,-3 2.9,-5 7.5,-5 2.9,0 5.5,0.9 6.8,1.8 -2.1,2.2 -4.2,4.8 -4.2,8.2 0,4.2 3.1,6.7 6.2,6.7 3,0 6.2,-2.5 6.2,-6.7 0,-3.4 -2.1,-6 -4.2,-8.2 1.4,-0.9 4.2,-1.8 7.1,-1.8 4.3,0 7.2,2 7.2,5 0,1.9 -1.2,3.2 -2.9,3.4 0.3,-0.8 0.3,-1.6 -0.1,-2.3 -0.4,-0.8 -1.2,-1.2 -2.1,-1.2 -1.6,0 -2.6,1 -2.6,2.6 0,2.1 1.7,3.4 4.4,3.4 2.9,0 5.9,-2.1 5.9,-5.7 -0.2,-4.4 -4.4,-7.5 -10.5,-7.5 z m -8.5,5.8 c 2.4,2.2 3.6,4.3 3.6,6.6 0,2.8 -1.8,4.1 -3.6,4.1 -1.8,0 -3.6,-1.3 -3.6,-4.1 0,-2.3 1.2,-4.5 3.6,-6.6 z"
                 id="path65"
                 style="fill:#000000" />
              <path
                 d="m 69.3,231.2 c 7.7,0 15.3,-3.1 22.8,-9.3 l 0.4,-0.3 -0.5,-0.1 c -6.5,-1.9 -11.9,-4.1 -16.7,-6.1 -7.7,-3.1 -13.8,-5.5 -20.3,-5.5 -9.9,0 -18.3,6.4 -18.3,14 0,3.6 2.6,5.5 5.2,5.5 2.4,0 4,-1.4 4,-3.4 0,-1.3 -0.6,-2.3 -1.6,-2.8 1.9,0 4.4,1.2 7.3,2.7 4.6,2.4 10.4,5.3 17.7,5.3 z m -1,-12.8 c -5.1,-1.2 -9.9,-2.4 -14.1,-2.4 -2.9,0 -6,0.5 -7.8,1.3 l -1.9,0.8 2.1,-0.3 c 6.2,-1 11.7,0.6 18.2,2.4 4.4,1.2 9.3,2.6 14.9,3.3 -2.7,0.1 -6.2,0.2 -7.4,0.2 -5.1,0 -13.1,-0.5 -18.2,-2.6 v 0 c 9.9,5.4 19.2,5.2 27.5,5 -4.3,1.9 -8.3,2.8 -12.4,2.8 -6.1,0 -11.3,-2.6 -15.8,-4.8 -3.3,-1.6 -6.1,-3 -8.5,-3 -3.1,0 -5,1.1 -5.7,3.2 0,0 0,-0.1 0,-0.1 0,-8.1 9.4,-11.8 15.7,-11.8 5.8,0 13,3 20,5.8 2.8,1.2 5.5,2.3 8,3.1 -4.8,-0.5 -9.7,-1.7 -14.6,-2.9 z"
                 id="path67"
                 style="fill:#000000" />
              <path
                 d="m 25,180.6 c 4.3,-4.8 8.6,-10.4 8.6,-20.8 0,-4.3 -1,-10.8 -2.6,-14.3 l -0.2,-0.5 -0.3,0.4 c -1.6,2.8 -4.3,4.6 -7.3,6.6 -2.1,1.4 -4.5,3 -6.8,5.2 -5.9,5.6 -9.1,13.3 -9.1,22.1 0,7.5 3.1,14.5 7.6,16.8 l 0.3,0.1 0.1,-0.3 c 2.4,-7.1 5.9,-11.1 9.1,-14.7 z m -6.7,-0.7 c 5.7,-6.5 10.1,-14.9 12.3,-23.7 0.1,1.7 0.1,2.4 0.1,3.7 0,9.5 -3.6,14 -7.4,18.8 L 23,179 c -3.6,3.9 -6.9,8.7 -9.1,13.4 -1.2,-1.5 -4.1,-5.7 -4.1,-12.9 0,-10.8 5.5,-19.9 15.7,-25.8 -6,6.9 -11.8,16 -12.1,31.2 v 0 c 2.1,-12.2 6.9,-21.4 14.5,-29.8 -1.8,8 -5.2,14.7 -8.7,21.8 -0.4,0.9 -0.9,1.8 -1.3,2.7 l -0.9,1.8 z"
                 id="path69"
                 style="fill:#000000" />
              <path
                 d="m 19.4,128.5 0.6,-0.3 c 9.5,-4.9 16.1,-16.2 16.1,-27.5 0,-7.9 -3,-12.9 -5.5,-17 -1.6,-2.7 -3,-5.1 -3,-7.5 0,-0.5 0,-1 0.2,-1.4 l 0.3,-0.7 -0.7,0.3 c -7.6,3.7 -12.2,12.1 -12.2,22 0,4.8 1.3,9.5 2.6,14.1 1.3,4.6 2.5,8.9 2.5,13.4 0,1.3 -0.3,2.8 -0.8,4 z m 1.8,-35.4 c 0,5.5 1.6,14.2 4.1,22.7 v 0 C 24,105.9 23.8,98.9 23.8,93.1 c 0,-2.4 0.2,-7.5 1,-11 0.9,3.7 1.6,8.7 2.3,15.8 v 0 c 0.4,3.5 0.8,7.6 1,11.7 l 0.1,2 0.4,-1.9 c 0.5,-2.7 0.9,-8.2 0.8,-11.8 -0.1,-3.7 -1.2,-10.9 -2.2,-15.2 4.1,7 6.3,12.1 6.3,17.9 0,9 -3.5,16.6 -10.5,22.9 0,-4.7 -1.3,-9.3 -2.6,-13.7 -1.3,-4.3 -2.6,-8.8 -2.6,-13.4 0,-5.9 1.5,-11 4.3,-15 -0.5,3 -0.9,8.1 -0.9,11.7 z"
                 id="path71"
                 style="fill:#000000" />
              <path
                 d="m 45.7,41.9 c 0,5.3 2.2,12.3 7.2,16.2 h 0.1 0.1 c 6.7,1 11.9,5.3 12.4,8.5 l 0.1,0.5 0.4,-0.3 c 1.8,-1.5 3.7,-4.7 3.7,-7.9 0,-3.7 -2.3,-6.8 -6,-7.9 C 72.6,40.6 73.3,27.2 73.3,23.3 73.3,7.6 65.1,0.6 57.1,0.6 50.7,0.6 46,4.8 46,10.5 c 0,4.3 3.3,7.6 7.7,7.6 1.5,0 2.7,-0.2 3.7,-0.6 -1.3,2.7 -3,5.1 -4.7,7.5 -3.5,4.8 -7,9.7 -7,16.9 z m 14.8,10.3 c 4.4,1 6.8,3.3 6.8,6.7 0,1.6 -0.4,3.1 -1.1,4.1 -1.8,-2.7 -4.1,-4.8 -9.1,-6.1 2.5,-0.8 5.2,-0.3 7.3,1.3 l 0.8,0.7 -0.4,-1 C 63.4,54.9 60.2,53.5 56.2,54.1 66.6,35 69.8,20.8 65.9,12 l -0.8,-1.9 0.3,2 c 1.3,7.5 1.1,18.9 -11.4,40 -0.5,-9.9 2,-15.1 4.4,-20.2 1.6,-3.4 3.3,-6.8 4,-11.6 v 0 c -1.2,4 -3.5,6.9 -5.3,9.9 -3.2,5.3 -6.5,10.9 -6,22 -2,-3 -2.9,-7.2 -2.9,-10.3 0,-6.4 3.5,-11.5 6.9,-16.4 2.9,-4.3 5.7,-8.3 5.7,-12.7 0,-2.4 -1.5,-4.1 -3.6,-4.1 -2.2,0 -3.4,1.7 -3.4,3.4 0,1 0.4,1.8 1,2.4 0.5,0.4 1.3,0.9 2.5,0.9 -0.9,0.5 -2.1,0.7 -3.8,0.7 -2.9,0 -5.1,-2.4 -5.1,-5.5 0,-4.6 3.3,-7.6 8.5,-7.6 6.7,0 13.9,6.4 13.9,20.3 0,7.2 -1.8,18 -10.5,28.4 L 60,52 Z"
                 id="path73"
                 style="fill:#000000" />
              <path
                 d="m 11.5,79.2 c 5.4,0 9.8,-3.2 14.2,-6.3 3.8,-2.7 7.5,-5.3 11.3,-5.3 h 0.1 l 0.1,-0.1 C 41.2,62.9 44,55.4 44,48.8 44,36.1 36.4,28.3 29.1,28.2 h -0.3 l 0.1,0.3 c 0.4,1.5 0.6,3 0.6,4.3 0,2.7 -0.8,4.6 -1.6,6.6 -0.9,2.3 -2,4.8 -2.1,8.8 -2.5,-1.8 -6.1,-3 -9.3,-3 -3.1,0 -5,0.5 -5.5,0.8 l -0.1,0.1 v 0.1 c -1,6.2 2.2,12.8 7.9,16.1 -1.7,0.7 -3,1.9 -4.1,3 -0.4,-2.1 -2.2,-3.4 -4.8,-3.4 -3.9,0 -8,3.2 -8,8.5 -0.2,5.1 4,8.8 9.6,8.8 z M 9.2,64.5 c -0.5,0.5 -0.9,1.1 -0.9,1.9 0,1.8 1.3,3.1 3.1,3.1 1.8,0 2.8,-1 4,-2.2 1.6,-1.6 3.5,-3.5 8.2,-4.2 L 24.5,63 23.6,62.6 C 15.4,59.2 12.7,52.8 12.9,48 c 1,-0.2 1.9,-0.3 3.1,-0.3 4.8,0 8.8,2.3 12.1,6.8 l 1,1.4 -0.5,-1.6 C 28.2,53 28,51.4 28,49 c 0,-4.1 1.1,-6.8 2.1,-9.2 0.8,-2 1.5,-3.8 1.5,-6.1 0,-1 -0.1,-1.9 -0.3,-2.6 0.2,0.1 0.5,0.2 0.7,0.2 0.1,0 0.2,0.1 0.2,0.1 5.8,2.4 9.1,8.8 9.1,17.7 0,4.6 -1.6,9.9 -3.3,12.9 1.4,-12.1 0.3,-20.4 -3.3,-25.9 l -0.9,-1.4 0.4,1.6 c 2.3,8.4 2.7,16.7 1.3,25.3 -1.4,-5 -2.7,-10.9 -3.5,-16.5 l -0.3,-2.2 -0.2,2.2 c -0.6,6.4 0.8,13.5 1.7,17.2 C 29,57.5 22.7,52 17,50.4 l -1.8,-0.5 1.6,1 c 5.9,3.7 11.4,8.4 14.5,12.7 -3,-1.6 -5.9,-3.4 -8.7,-5.2 -1,-0.6 -2.1,-1.3 -3.1,-1.9 l -1.4,-0.8 1,1.2 c 2.2,2.7 6.7,6.1 11,8.5 -2.2,0 -6.3,0.3 -9.1,2.1 -0.9,0.6 -1.8,1.2 -2.7,1.7 -4.5,3 -7.4,4.9 -10.4,2.7 l -1.8,-1.3 1.4,1.7 c 3.5,4.3 8.3,1.2 13.8,-2.3 l 0.6,-0.4 c 3,-1.9 6.4,-2.1 8.4,-2.1 -2.1,1.1 -4.2,2.5 -6.3,3.9 -4.1,2.8 -8.4,5.8 -12.8,5.8 C 7,77.2 4,74.5 4,70.8 4,67.7 6,64.5 9.4,64.5 9.5,64.3 9.3,64.3 9.2,64.5 Z"
                 id="path75"
                 style="fill:#000000" />
              <path
                 d="m 143.6,94.4 c 1.9,0 3.2,-0.7 4.8,-2.1 2,-1.8 3.8,-2.8 7.3,-2.8 4.4,0 8.7,2.4 8.7,7.7 0,5.5 -3.7,8.6 -12.7,10.6 l -2.5,0.6 v 3.6 l 3.4,-0.6 c 6.9,-1.7 16.2,-5.1 16.2,-14.4 0,-6.8 -5.4,-11.6 -13.1,-11.6 -7.3,0 -14.2,5.3 -14.2,7.7 0,0.8 0.9,1.3 2.1,1.3 z m 1,-3.3 c 0,-0.4 0.3,-0.6 0.6,-0.6 0.4,0 0.6,0.3 0.6,0.6 0,0.4 -0.3,0.6 -0.6,0.6 -0.3,0 -0.6,-0.2 -0.6,-0.6 z"
                 id="path77"
                 style="fill:#000000" />
              <path
                 d="m 147.7,117.1 -2.6,-0.5 c -3.1,-0.6 -3.7,-1 -3.7,-1.5 0,-0.5 0.3,-0.9 1.9,-1.3 h 0.2 v -3.5 l -0.3,0.1 c -4.1,1.1 -5.9,2.6 -5.9,4.9 0,2.2 2.4,3.6 7.7,4.5 l 2.6,0.5 c 6.8,1.4 7.9,3.6 8.5,4.7 0.3,0.5 0.5,1 1.1,1 0.6,0 0.8,-1.2 0.8,-1.8 0,-0.3 -0.1,-1 -0.4,-1.6 -0.6,-1.1 -2.4,-4 -9.9,-5.5 z"
                 id="path79"
                 style="fill:#000000" />
              <path
                 d="m 148,122.3 v -1 l -3.1,-0.6 v 1.7 c -3.5,0.8 -5.7,1.5 -5.7,3 v 0.3 h 14.7 v -0.3 c 0,-1.5 -2.3,-2.3 -5.9,-3.1 z"
                 id="path81"
                 style="fill:#000000" />
              <path
                 d="m 61.7,117.6 c 7.4,0 10,-2.8 10,-5.2 v -0.3 H 69.8 L 63.2,91.7 c 2.6,-0.5 4.9,-0.8 6.9,-0.8 0.4,1.1 1.7,2.2 3.3,2.2 1.6,0 2.9,-1.1 3.3,-2.2 2.8,0 5.4,0.5 6.9,0.8 L 77,112.1 h -1.9 v 0.3 c 0,2.4 2.6,5.2 10,5.2 7,0 9.5,-2.7 9.5,-5.2 v -0.3 H 93 L 87,92.7 87.9,93 89,89.8 88.7,89.7 c -4.2,-1.3 -8.2,-2.1 -12.4,-2.3 -0.5,-1.2 -1.7,-2.1 -3.2,-2.1 -1.4,0 -2.7,0.8 -3.3,2.1 -4.2,0.3 -8,1 -12.3,2.3 l -0.3,0.1 1.1,3.2 0.9,-0.3 -6,19.4 h -1.6 v 0.3 c 0.5,2.6 3,5.2 10.1,5.2 z M 56,112.2 60.7,95.9 v 16.3 z m 6.7,0 V 95.9 l 4.8,16.3 z m 16.8,0 4.8,-16.3 v 16.3 z m 6.9,0 V 95.9 l 4.8,16.3 z"
                 id="path83"
                 style="fill:#000000" />
              <path
                 d="m 144.9,115.5 3.1,0.6 V 106 c 6.3,-1.4 12.4,-3.1 12.4,-8.2 v -0.3 h -27.8 v 0.3 c 0,5 6.1,6.8 12.4,8.2 v 9.5 z"
                 id="path85"
                 style="fill:#000000" />
              <path
                 d="m 151.7,60.3 c -2.3,1.8 -4.6,2.3 -9,2.3 -7.3,0 -15.5,-4.4 -19.1,-4.4 -3.1,0 -4.4,1.8 -4.9,6.2 3.9,0 15.2,5.7 23.2,5.7 5.9,0 9.3,-2.1 9.8,-9.8 z m -27.4,3.6 c -1.2,-0.3 -1.7,-1.2 -1.7,-2.3 0,-1.4 0.8,-2.2 1.8,-2.1 1.4,0.3 1.8,1.4 1.8,2.7 0,1.3 -0.9,2 -1.9,1.7 z m 4.5,1.4 -0.6,-1.9 v 1.7 l -1.3,-0.4 v -4.4 l 1.3,0.4 c 1.3,0.4 1.8,0.9 1.8,1.7 0,0.5 -0.3,0.9 -0.8,1 l 1,2.4 z m 3.1,1.1 -1.3,-0.4 V 61.5 L 132,62 c 1.5,0.5 2.1,1.5 2.1,2.8 -0.1,1.4 -1.2,1.8 -2.2,1.6 z m 5.2,1.3 -2.6,-0.6 v -4.2 l 2.5,0.6 v 0.8 l -1.2,-0.4 v 1.2 l 1,0.1 V 66 l -1,-0.3 v 1 l 1.3,0.3 v 0.7 z m 4.2,0.6 -1.5,-0.1 -1.2,-3.3 0.1,3.2 -0.8,-0.1 v -4.2 l 1.7,0.3 1,3.2 -0.1,-3.1 h 0.8 z"
                 id="path87"
                 style="fill:#000000" />
              <path
                 d="m 83.7,67 c 0,-0.5 -0.3,-0.8 -0.6,-0.8 v 1.5 c 0.3,0.1 0.6,-0.2 0.6,-0.7 z"
                 id="path89"
                 style="fill:#000000" />
              <path
                 d="m 131.9,62.6 v 3.1 c 0.5,0.1 0.9,-0.1 0.9,-1.2 0,-1.4 -0.4,-1.7 -0.9,-1.9 z"
                 id="path91"
                 style="fill:#000000" />
              <polygon
                 points="95.7,63.5 96.3,63.3 95.9,61.2 "
                 id="polygon93"
                 style="fill:#000000" />
              <path
                 d="m 81.4,70.1 c 8,0 19.3,-5.9 23.2,-5.9 -0.5,-4.4 -1.8,-6.2 -4.9,-6.2 -3.7,0 -11.8,4.6 -19.1,4.6 -3.2,0 -6.7,-0.5 -9,-2.3 0.5,7.7 3.9,9.8 9.8,9.8 z m 15.4,-9.9 1,4 V 60 l 1.3,-0.3 c 1.3,-0.3 2.1,0.3 2.1,1.5 0,1.4 -0.6,2.1 -2.1,2.6 l -1.3,0.4 -1.3,0.4 -0.1,-0.6 -0.9,0.4 -0.1,0.8 -1,0.4 0.9,-4.8 z m -5.1,1.7 3,-0.9 v 0.9 L 93.9,62 v 3.6 L 92.6,66 v -3.6 l -0.9,0.4 v -0.9 z m -3.1,0.9 1.4,-0.4 c 1,-0.3 1.7,0.4 1.7,1.2 0,0.4 -0.3,0.9 -0.6,1 l 1,1.5 -1.4,0.4 -0.8,-1.4 v 1.7 l -1.3,0.4 v -4.4 z m -3.1,0.7 2.4,-0.5 v 0.8 l -1.2,0.1 v 1 l 1.2,-0.3 v 0.8 l -1.2,0.1 v 1.2 L 88,66.4 v 0.8 l -2.6,0.5 v -4.2 z m -3.7,0.5 1.4,-0.1 c 1,-0.1 1.7,0.1 1.7,0.9 0,0.5 -0.4,1 -0.9,1 0.5,0 1,0.1 1,0.9 0,0.8 -0.5,1.3 -1.5,1.4 l -1.7,0.1 z m -2.1,0 H 81 v 4.1 h -1.3 z m -2.8,-0.2 1.3,0.1 v 3.5 h 1 v 0.8 c -0.8,0 -1.8,-0.3 -2.3,-0.5 z"
                 id="path95"
                 style="fill:#000000" />
              <path
                 d="M 128.1,61.3 V 63 c 0.4,0.1 0.6,-0.1 0.6,-0.6 0.1,-0.5 -0.1,-0.9 -0.6,-1.1 z"
                 id="path97"
                 style="fill:#000000" />
              <path
                 d="m 90.4,63.7 c 0,-0.4 -0.1,-0.8 -0.5,-0.6 v 1.5 c 0.4,-0.2 0.5,-0.4 0.5,-0.9 z"
                 id="path99"
                 style="fill:#000000" />
              <path
                 d="m 83.7,65.1 c 0,-0.4 -0.3,-0.6 -0.6,-0.6 v 1.3 c 0.3,-0.1 0.6,-0.3 0.6,-0.7 z"
                 id="path101"
                 style="fill:#000000" />
              <path
                 d="m 124.4,60.1 c -0.5,-0.1 -0.5,0.6 -0.5,1.7 0,0.8 0,1.5 0.5,1.7 0.5,0.1 0.5,-0.6 0.5,-1.5 0,-0.9 0,-1.8 -0.5,-1.9 z"
                 id="path103"
                 style="fill:#000000" />
              <path
                 d="m 106.1,58.5 c 0,1.5 0.8,3.9 1.3,5.4 1.3,-0.3 3.1,-0.5 4.1,-0.5 1.3,0 3.1,0.3 4.4,0.5 0.5,-1.5 1.3,-3.9 1.3,-5.4 0,-2.1 -1.5,-2.8 -5.7,-2.8 -3.9,0 -5.4,0.7 -5.4,2.8 z m 6.4,-1 h 0.8 l -1,2.7 v 1.4 H 111 v -1.4 l -1,-2.7 h 1.3 l 0.6,1.9 z"
                 id="path105"
                 style="fill:#000000" />
              <path
                 d="m 99.9,61.5 c 0,-1.3 -0.3,-1.3 -0.8,-1.3 v 3 c 0.6,-0.3 0.8,-0.6 0.8,-1.7 z"
                 id="path107"
                 style="fill:#000000" />
              <path
                 d="m 79.4,245.2 c 0,0.8 -0.9,1 -1.9,0.8 l 0.3,1.4 c 1.5,0.5 3.3,-0.5 3.3,-2.3 0,-2.3 -2.4,-2.7 -2.4,-4 0,-1 0.9,-1.2 1.9,-0.9 l -0.3,-1.4 c -1.8,-0.3 -3.2,0.8 -3.2,2.3 0,2.3 2.3,2.6 2.3,4.1 z"
                 id="path109"
                 style="fill:#000000" />
              <path
                 d="m 89.5,242.1 1.4,-0.4 0.3,1.5 1.3,-0.4 -1.3,-7.9 -2.2,0.6 -1.4,8.6 1.7,-0.5 z m 0.4,-3.8 0.1,-1.7 0.3,-0.1 0.1,1.7 0.3,2.3 -1,0.3 z"
                 id="path111"
                 style="fill:#000000" />
              <path
                 d="m 84.2,242.3 c 0.6,0 1,-0.4 1,-1 0,-0.6 -0.4,-1 -1,-1 -0.6,0 -1,0.4 -1,1 0,0.6 0.4,1 1,1 z"
                 id="path113"
                 style="fill:#000000" />
              <path
                 d="m 47.1,258.7 c -0.5,0.3 -1.4,0.5 -1.8,0.6 v -2.7 l 1.5,-0.3 V 255 l -1.5,0.5 v -2.3 l 1.8,-0.3 v -1.3 c -1,0.3 -2.1,0.5 -3.3,0.8 v 8.2 c 0.9,-0.1 2.4,-0.5 3.3,-0.8 z"
                 id="path115"
                 style="fill:#000000" />
              <path
                 d="m 73.8,247.8 1.7,-0.6 0.3,1.5 1.3,-0.5 -1.8,-7.7 -2.1,0.8 -1,9 1.5,-0.6 z m 0.4,-3.7 v -1.9 l 0.3,-0.1 0.3,1.9 0.5,1.9 -1.3,0.5 z"
                 id="path117"
                 style="fill:#000000" />
              <polygon
                 points="37.7,258.6 37.5,258.6 37,256.3 35.9,253.2 34.6,253.1 34.6,260.6 35.9,260.8 35.9,258.4 35.4,255.3 35.7,255.3 36.2,257.6 37.2,261.1 38.5,261.2 38.5,253.2 37.2,253.2 37.2,255.5 "
                 id="polygon119"
                 style="fill:#000000" />
              <path
                 d="m 49.2,256 0.5,-0.1 0.3,1 1.2,1.8 1.5,-0.5 -2.2,-2.8 c 0.8,-0.5 1.3,-1.4 1.3,-2.4 0,-1.3 -1,-2.2 -2.8,-1.7 l -1,0.3 v 8.2 l 1.3,-0.4 V 256 Z m 0,-3.7 c 0.8,-0.3 1.3,0.3 1.3,1 0,0.5 -0.3,1.3 -1.3,1.5 z"
                 id="path121"
                 style="fill:#000000" />
              <path
                 d="m 96.8,241.9 v -1.2 c -1.3,0.5 -2.4,-0.3 -2.4,-2.6 0,-2.1 0.6,-3.1 2.2,-3.1 v -1.3 c -2.1,-0.3 -3.6,1.5 -3.6,4.4 0,3.9 2,4.6 3.8,3.8 z"
                 id="path123"
                 style="fill:#000000" />
              <path
                 d="m 54.9,254.4 c 0.6,0 1,-0.4 1,-1 0,-0.6 -0.4,-1 -1,-1 -0.6,0 -1,0.4 -1,1 -0.1,0.6 0.3,1 1,1 z"
                 id="path125"
                 style="fill:#000000" />
              <polygon
                 points="70.1,249.9 70.1,242.5 68.8,243 68.8,251.7 71.6,250.5 71.6,249.1 "
                 id="polygon127"
                 style="fill:#000000" />
              <path
                 d="m 64.6,253.5 c 1.3,0 2.8,-1.3 2.8,-3.9 v -6.1 l -1.5,0.6 v 6.2 c 0,1 -0.5,1.5 -1,1.5 -0.3,0 -0.5,-0.3 -0.5,-0.8 v -6 l -1.3,0.5 v 6.2 c 0,1 0.5,1.8 1.5,1.8 z"
                 id="path129"
                 style="fill:#000000" />
              <path
                 d="m 59.5,253.7 1.5,-0.6 0.3,1.8 1.3,-0.5 -1.3,-8 -2.3,1 -1.3,8.9 1.5,-0.6 z m 0.5,-5.5 0.3,-0.1 0.3,1.9 0.3,1.8 -1.3,0.5 z"
                 id="path131"
                 style="fill:#000000" />
              <path
                 d="m 40.3,261.2 1.5,-0.1 v -6.8 c 0.3,0 1.4,-0.1 1.4,-0.1 v -1.4 c -1.2,0.3 -3.3,0.5 -4.3,0.5 v 1.3 l 1.3,-0.1 v 6.7 z"
                 id="path133"
                 style="fill:#000000" />
              <path
                 d="m 163.9,252.2 c 0.6,0 1,-0.4 1,-1 0,-0.6 -0.4,-1 -1,-1 -0.6,0 -1,0.4 -1,1 0,0.6 0.4,1 1,1 z"
                 id="path135"
                 style="fill:#000000" />
              <polygon
                 points="158.9,252.3 158.9,249.7 160.7,250.4 160.7,249.1 158.9,248.4 158.9,246.3 161,247.2 161,245.9 157.6,244.3 157.6,253.1 161,254.4 161,253 "
                 id="polygon137"
                 style="fill:#000000" />
              <polygon
                 points="171.3,250.3 170,249.7 169.2,254.4 169.1,256.6 168.7,256.4 168.7,254.2 168,249 166.6,248.3 167.7,257.2 170,258.1 "
                 id="polygon139"
                 style="fill:#000000" />
              <path
                 d="m 154,248.3 h 0.5 l 0.1,0.8 1,3.1 1.8,0.8 -1.9,-5 c 0.8,-0.4 1,-1.5 1,-2.1 0,-1.3 -0.5,-2.3 -2.6,-3.1 l -1.3,-0.5 v 8.8 l 1.3,0.5 v -3.3 z m 0,-4.1 c 0.8,0.3 1.3,0.6 1.3,1.7 0,1 -0.8,1.4 -1.3,1.2 z"
                 id="path141"
                 style="fill:#000000" />
              <polygon
                 points="173.1,257.8 173.1,255.4 174.6,255.9 174.6,254.6 173.1,254.2 173.1,252.1 175.1,252.8 175.1,251.5 171.8,250.4 171.8,258.6 175.1,259.8 175.1,258.4 "
                 id="polygon143"
                 style="fill:#000000" />
              <path
                 d="m 182.9,261.6 c 1.3,0 2.2,-1 2.2,-2.8 v -5.5 h -1.4 v 5.8 c 0,0.8 -0.5,1 -0.8,1 -0.5,0 -0.8,-0.4 -0.8,-1.3 v -5.7 l -1.5,-0.3 v 5.9 c -0.1,2.1 1,2.9 2.3,2.9 z"
                 id="path145"
                 style="fill:#000000" />
              <polygon
                 points="187,255.1 187.2,255.1 188.3,259.5 189.3,259.3 190.2,254.6 190.5,254.5 190.1,257.5 190.1,260 191.4,259.4 191.4,252.4 189.8,252.7 189,256 188.9,257.8 188.6,257.8 188.5,256.2 187.5,253.1 186.1,253.2 186.1,261.1 187.4,260.9 187.4,258.2 "
                 id="polygon147"
                 style="fill:#000000" />
              <path
                 d="m 146.3,248.3 0.5,-1.8 1.5,0.6 v 1.9 l 3.6,1.5 V 249 l -2.1,-0.8 v -2.3 l 1.5,0.6 v -1.3 l -1.5,-0.6 v -2.1 l 2.1,0.9 V 242 l -4.5,-1.8 -2.3,7.6 z m 1.4,-5 0.4,-1.7 0.3,0.1 v 4.1 l -1.2,-0.5 z"
                 id="path149"
                 style="fill:#000000" />
              <path
                 d="m 177.2,257.6 h 0.5 l 0.1,0.6 0.9,2.4 1.5,0.4 -1.5,-3.9 c 0.5,-0.3 1,-1.2 1,-2.1 0,-1.5 -0.8,-2.7 -2.3,-3.1 l -1.5,-0.4 v 8.4 l 1.3,0.3 z m 0,-4.1 c 0.8,0 1.3,0.6 1.3,1.4 0,1 -0.5,1.5 -1.3,1.5 z"
                 id="path151"
                 style="fill:#000000" />
              <path
                 d="m 32.1,259.5 c 0.4,0.3 0.8,0.4 1.5,0.6 v -7.3 l -1.5,-0.4 z"
                 id="path153"
                 style="fill:#000000" />
              <polygon
                 points="109.7,238.9 109.7,236.3 111.3,236.3 111.3,235.1 109.7,235.2 109.7,233 111.5,232.9 111.5,231.6 108.4,231.7 108.4,240.2 111.5,240.1 111.5,238.8 "
                 id="polygon155"
                 style="fill:#000000" />
              <polygon
                 points="113.8,233.8 114.1,233.8 114.6,236.3 115.1,238.4 116.2,238.4 116.7,236.3 117.2,234 117.4,234 117.2,237.6 117.2,240.3 118.5,240.5 118.5,232.1 116.9,232 115.9,235.1 115.6,237.1 115.5,237.1 115.4,235.1 114.3,231.7 112.8,231.6 112.8,240.1 114.1,240.1 114.1,237.4 "
                 id="polygon157"
                 style="fill:#000000" />
              <path
                 d="m 99,239.6 1.4,-0.4 0.3,1.8 1.5,-0.3 -1.5,-8 -2.3,0.5 -1,8.5 1.4,-0.4 z m 0.4,-5.6 h 0.3 l 0.5,3.9 -1,0.3 z"
                 id="path159"
                 style="fill:#000000" />
              <path
                 d="m 107.4,236.1 c 0,-3.1 -1.4,-4.1 -3.5,-3.9 l -0.9,0.1 v 8.2 l 1,-0.1 c 1.8,-0.2 3.4,-1.2 3.4,-4.3 z m -3.1,-2.6 c 1,-0.3 1.8,0.8 1.8,2.8 0,1.5 -0.8,2.8 -1.8,2.8 z"
                 id="path161"
                 style="fill:#000000" />
              <polygon
                 points="119.5,232.2 119.5,240.6 120.8,240.7 120.8,232.5 "
                 id="polygon163"
                 style="fill:#000000" />
              <path
                 d="m 142.9,247.2 c 1.2,0.4 2.3,-0.5 2.3,-1.8 v -6.1 l -1.3,-0.4 v 6.2 c 0,0.5 -0.3,0.9 -0.8,0.8 -0.6,-0.1 -1,-0.8 -1,-1.8 v -5.8 l -1.3,-0.5 v 6.1 c 0.1,2 0.8,2.9 2.1,3.3 z"
                 id="path165"
                 style="fill:#000000" />
              <path
                 d="m 137.5,245.1 h 0.3 l 2.3,0.8 v -1.5 l -1,-0.3 -0.8,0.3 c 1,-0.5 1.3,-1.5 1.3,-3.1 0,-3.1 -0.8,-4.9 -2.6,-4.9 -1.5,0 -2.3,1.8 -2.3,4.1 0,2.8 0.8,4.6 2.8,4.6 z m -0.4,-7.3 c 0.9,0 1.2,1.4 1.2,3 0,1.8 -0.3,3.1 -1,3.1 -1,0 -1.3,-1.5 -1.3,-3.1 0,-1.9 0.2,-3 1.1,-3 z"
                 id="path167"
                 style="fill:#000000" />
              <path
                 d="m 131.1,239.9 c 0.6,0 1,-0.4 1,-1 0,-0.6 -0.4,-1 -1,-1 -0.6,0 -1,0.4 -1,1 0,0.7 0.3,1 1,1 z"
                 id="path169"
                 style="fill:#000000" />
              <path
                 d="m 123.2,239.4 1.4,0.3 v 1.7 l 3.3,0.8 v -1.3 l -2.1,-0.4 V 238 l 1.8,0.4 v -1.3 l -1.8,-0.3 v -2.1 l 2.1,0.5 V 234 c -1,-0.3 -3.1,-0.8 -4.1,-0.9 l -2.6,7.7 1.4,0.3 z m 1.1,-3.4 0.4,-1.5 h 0.1 l -0.1,1.5 v 2.4 l -1.2,-0.1 z"
                 id="path171"
                 style="fill:#000000" />
            </g>
            <path
               d="m 78.5,62.6 c 0,2.3 -1.8,4.1 -4.6,4.1 -2.3,0 -3.9,-1.5 -4.1,-4.1 1.3,1 4.1,0.3 4.6,2.3 0.3,-2.1 2.8,-2.1 3.9,-3.6 0.2,0.6 0.2,0.8 0.2,1.3 z"
               id="path175"
               style="fill:#000000" />
            <path
               d="m 80.1,66.8 c 0,2.8 -2.6,4.4 -5.9,4.4 -2.6,0 -4.1,-1 -4.4,-4.1 1.5,1.5 5.2,0.5 5.7,2.8 0,-2.6 3.6,-2.8 4.4,-4.4 0.2,0.2 0.2,0.7 0.2,1.3 z"
               id="path177"
               style="fill:#000000" />
            <path
               d="m 73.9,62.4 c -2.1,0 -3.6,-1.5 -3.6,-3.1 0,-0.5 0,-0.8 0.3,-1.3 1,1.3 3.3,0.8 3.6,3.3 -0.3,-2.6 2.8,-3.1 3.3,-3.6 0.1,2.6 -1.3,4.7 -3.6,4.7 z"
               id="path179"
               style="fill:#000000" />
            <path
               d="m 82.4,70.9 c 0,3.3 -3.6,5.4 -6.7,5.4 -2.3,0 -3.9,-1.3 -4.4,-3.6 0.4,0.4 1.3,0.3 3.9,0.3 1,0 2.3,0 2.8,1.3 v -1 c 0,-2.6 3.6,-3.3 3.9,-4.9 0.2,0.9 0.5,1.7 0.5,2.5 z"
               id="path181"
               style="fill:#000000" />
            <path
               d="M 73.9,58.3 C 73.1,58 72.1,57 72.1,55.5 c 0,-1.5 1,-3.3 2.3,-4.6 0,2.1 1,3.3 1,4.9 0,1.2 -1,2.2 -1.5,2.5 z"
               id="path183"
               style="fill:#000000" />
            <path
               d="m 130.8,8.3 c 6.4,0 14.4,6.2 15.5,23.2 -2.3,0 -3.1,-1.8 -3.3,-4.6 -1.5,-10.8 -7.2,-16 -11.3,-16 -8,0 -1.5,12.6 -9.8,14.4 0,2.1 -0.5,4.6 -1.5,4.6 -1.3,0 -1.8,-2.3 -2.3,-4.1 0,2.8 -0.8,5.2 -1.8,5.2 -0.8,0 -1.5,-2.3 -2.1,-4.4 0,2.6 -1.3,5.2 -2.6,5.2 -1,0 -2.3,-2.6 -2.3,-5.2 -0.5,2.1 -1.3,4.4 -2.1,4.4 -1,0 -1.8,-2.3 -1.8,-5.2 -0.5,1.8 -1,4.1 -2.3,4.1 -1,0 -1.5,-2.6 -1.5,-4.6 -8.2,-1.8 -1.8,-14.4 -9.8,-14.4 -4.1,0 -9.8,5.2 -11.3,16 -0.3,2.8 -1,4.6 -3.3,4.6 1,-17 9,-23.2 15.5,-23.2 9.5,0 4.6,11.8 9,11.8 1.8,0 3.3,-2.1 4.9,-4.6 -0.3,0.5 -0.3,1 -0.3,1.5 0,2.1 2.1,3.3 5.4,3.3 3.6,0 5.7,-1.3 5.7,-3.3 0,-0.5 0,-1 -0.3,-1.5 1.5,2.6 2.8,4.6 4.9,4.6 3.9,0 -0.7,-11.8 8.8,-11.8 z"
               id="path185"
               style="fill:#000000" />
            <path
               d="m 79.3,56.2 c 1.3,-0.5 2.3,-1.8 2.3,-5.4 1.5,7 3.1,11.6 4.9,16 1.3,3.3 2.6,5.4 2.6,6.4 0,0.8 -0.3,1 -0.8,1.3 -3.8,-4.7 -6.9,-11.6 -9,-18.3 z"
               id="path187"
               style="fill:#000000" />
            <path
               d="m 86,26.3 c -0.4,3.1 -1.8,4.4 -3.9,4.4 0.3,-4.6 1.5,-9 2.8,-11.8 1.8,-3.9 4.9,-6.2 6.4,-6.2 0.5,0 1,0.3 1,0.8 0,0.5 -0.8,0.8 -1.8,1.8 -1.9,2 -3.8,5.9 -4.5,11 z"
               id="path189"
               style="fill:#000000" />
            <path
               d="m 82.1,32.8 c 1.3,0 2.6,-0.8 3.3,-3.9 -0.3,2.1 -0.3,3.9 -0.3,5.7 v 5.2 c 0,1.8 -0.3,4.1 -2.6,4.4 C 82.1,40 82.1,36.1 82.1,32.8 Z"
               id="path191"
               style="fill:#000000" />
            <path
               d="m 82.9,46.1 c 1.5,0 2.8,-1.3 2.8,-4.4 1.3,11.6 4.4,18 5.9,22.4 0.8,2.3 1.3,4.1 1.3,5.4 0,0.8 -0.3,1.3 -1,1.5 -3.8,-6 -7.7,-15.6 -9,-24.9 z"
               id="path193"
               style="fill:#000000" />
            <path
               d="m 87.3,32.5 c 1.3,0 2.6,-0.8 3.3,-4.1 -0.3,2.3 -0.5,4.1 -0.5,5.4 0,1.8 0.3,4.1 0.3,5.4 0,2.1 -0.3,4.1 -2.6,4.6 -0.5,-2.8 -0.8,-5.4 -0.8,-8 0,-1.2 0,-2.3 0.3,-3.3 z"
               id="path195"
               style="fill:#000000" />
            <path
               d="m 90.9,26.3 c -0.5,3.1 -1.3,4.1 -3.3,4.1 0.5,-6.7 1.8,-10.3 4.1,-13.6 0.5,-0.8 1.3,-1.5 2.1,-1.5 0.3,0 0.8,0.3 0.8,0.8 0,0.5 -0.3,0.8 -0.5,1.3 -1.9,2.2 -2.7,6.1 -3.2,8.9 z"
               id="path197"
               style="fill:#000000" />
            <path
               d="m 87.8,45.6 c 1.5,-0.3 2.6,-1.5 2.8,-4.6 0.8,7.5 3.3,14.9 5.2,19.8 0.8,2.1 1,3.6 1,4.9 0,0.8 -0.3,1.3 -0.8,1.8 -3.8,-5.4 -7.2,-15.7 -8.2,-21.9 z"
               id="path199"
               style="fill:#000000" />
            <path
               d="m 92.2,30.4 c 1.5,0 2.8,-1.3 3.3,-3.6 -0.3,2.1 -0.3,3.6 -0.3,5.2 0,2.3 0.3,4.4 0.3,5.7 0,2.3 -1.5,3.9 -3.1,3.9 C 92.1,39 92.1,37 92.1,34.9 v -4.5 z"
               id="path201"
               style="fill:#000000" />
            <path
               d="m 94.5,20.9 c 0.5,0 1,0.8 1,2.6 0,2.3 -0.8,4.9 -3.1,4.9 0.8,-6.5 1.3,-7.5 2.1,-7.5 z"
               id="path203"
               style="fill:#000000" />
            <path
               d="m 92.7,43.8 c 1.3,-0.3 2.8,-1 3.1,-4.1 0.5,7.5 2.6,13.9 3.9,18.5 0.8,2.3 1.3,3.9 1.3,5.2 0,0.5 -0.3,1.3 -0.8,1.5 C 96.6,59.5 93.7,50 92.7,43.8 Z"
               id="path205"
               style="fill:#000000" />
            <path
               d="m 99.9,29.7 c 0,3.3 0.3,5.9 0.3,7.5 0,2.3 -1.3,3.9 -2.3,3.9 -0.5,-3.3 -0.8,-6.2 -0.8,-9.3 0,-3.9 0.5,-4.6 1.3,-4.6 0.7,-0.1 1.5,0.7 1.5,2.5 z"
               id="path207"
               style="fill:#000000" />
            <path
               d="m 100.9,72.7 0.3,-1.8 1.5,-2.6 -2.8,2.3 -0.8,1.3 h -0.5 l 0.3,-1.8 2.1,-1.8 -2.6,0.8 -0.5,0.8 h -0.8 l 1,-1.5 5.2,-2.1 0.8,-5.7 c 0.3,0.3 0.5,0.3 1,0.3 0.8,0 1,0 1.3,-0.3 l -1.3,5.7 3.3,2.1 0.5,2.1 h -0.5 l -1.3,-1.3 -2.3,-0.8 -2.3,2.8 -1,1.5 z"
               id="path209"
               style="fill:#000000" />
            <path
               d="m 97.9,42.8 c 1,0 2.3,-1 2.6,-3.6 0.3,2.6 1.3,7 1.3,8.8 0,1.8 -0.8,3.3 -1.8,3.3 -1.1,-2.3 -1.6,-5.9 -2.1,-8.5 z"
               id="path211"
               style="fill:#000000" />
            <path
               d="m 104,53.1 c 0,1 0.5,2.1 1.5,2.1 0.8,0 1.5,-0.8 2.1,-1.8 1,1 1.5,2.8 1.5,6.2 -1.3,-0.3 -2.3,-1.5 -2.3,-3.1 -0.3,2.1 -1,3.1 -1.8,3.1 -0.5,0 -0.8,-0.8 -0.8,-1.8 V 56 c -0.3,1 -1.8,2.3 -3.1,1.8 0.9,-2.4 1.9,-4.2 2.9,-4.7 z"
               id="path213"
               style="fill:#000000" />
            <path
               d="m 106.1,47.2 c 2.8,0 3.6,1 3.6,4.9 v 1.5 c -1.3,0 -2.1,-1.3 -2.3,-2.6 -0.3,1.8 -1,2.6 -1.5,2.6 -0.8,0 -1,-0.5 -1,-1.8 v -1.5 c -1,1.8 -2.1,1.8 -2.8,1.8 0.9,-3.9 1.9,-4.9 4,-4.9 z"
               id="path215"
               style="fill:#000000" />
            <path
               d="m 111.5,34 c 1.5,0 2.6,-1.5 2.6,-3.6 0.5,2.1 1.5,2.8 2.3,2.8 1,0 2.1,-1.8 2.1,-3.9 0.3,1.8 1.3,3.3 2.6,3.3 0,2.8 -0.5,4.4 -1.8,4.4 -0.8,0 -1,-1.3 -1.5,-3.3 0,2.1 -1,4.1 -2.1,4.1 -0.8,0 -1.3,-0.8 -1.8,-3.1 -0.3,2.3 -1.3,4.1 -2.3,4.1 -0.8,0 -2.1,-1.8 -2.1,-4.1 -0.5,2.3 -1,3.1 -1.8,3.1 -1,0 -2.1,-2.1 -2.1,-4.1 -0.5,2.1 -0.8,3.3 -1.5,3.3 -1.3,0 -1.8,-1.5 -1.8,-4.4 1,0 2.3,-1.5 2.6,-3.3 0,2.1 1,3.9 2.1,3.9 0.8,0 1.8,-0.8 2.3,-2.8 -0.1,2.1 0.9,3.6 2.2,3.6 z"
               id="path217"
               style="fill:#000000" />
            <path
               d="m 111.5,41.8 c 1.3,0 2.6,-1.8 2.6,-3.9 0.5,2.1 1,3.1 2.1,3.1 1,0 1.8,-1.8 1.8,-4.1 1.5,2.3 2.1,4.6 2.1,6.2 0,1.8 -0.5,2.3 -1,2.3 -0.8,0 -1.8,-1 -2.1,-3.3 0,2.8 -0.8,4.1 -1.8,4.1 -0.5,0 -1.3,-1 -1.8,-2.8 0,2.3 -0.8,3.9 -1.8,3.9 -0.8,0 -1.5,-1.5 -1.5,-3.9 -0.5,1.8 -1.3,2.8 -1.8,2.8 -1,0 -1.8,-1.3 -1.8,-4.1 -0.3,2.3 -1.3,3.3 -2.1,3.3 -0.5,0 -1,-0.5 -1,-2.3 0,-1.5 0.5,-3.9 2.1,-6.2 0,2.3 0.8,4.1 1.8,4.1 1,0 1.5,-1 2.1,-3.1 -0.2,2.1 1.1,3.9 2.1,3.9 z"
               id="path219"
               style="fill:#000000" />
            <path
               d="m 105.2,83.6 c 0,-1 0.9,-1.9 3,-3 -0.5,1 -1,1.5 -1.8,2.3 1.5,-1 1.3,-0.8 2.1,-1.3 -1,2.3 -1.9,2.6 -2.4,2.6 -0.5,0 -0.9,-0.2 -0.9,-0.6 z"
               id="path221"
               style="fill:#000000" />
            <path
               d="m 107,85.9 c 0,-1 0.8,-2.3 2.6,-4.1 -0.5,1.5 -0.8,2.1 -1.3,3.6 0.8,-1.3 1.3,-1.8 1.8,-2.6 -0.3,3.6 -1.4,4.2 -2.2,4.2 -0.5,0.1 -0.9,-0.3 -0.9,-1.1 z"
               id="path223"
               style="fill:#000000" />
            <path
               d="m 111.5,91.5 c -1,0 -1.8,-0.5 -1.8,-2.3 0,-1.3 0.3,-2.4 1,-4.8 0.3,1 0.8,2.1 0.8,3.6 0,-1.5 0.5,-2.6 0.8,-3.6 0.8,2.3 1,3.5 1,4.8 0,1.8 -0.8,2.3 -1.8,2.3 z"
               id="path225"
               style="fill:#000000" />
            <path
               d="m 114.2,11.8 c 0,1.2 0.4,2.2 0.4,2.4 0,1 -1.5,1.8 -3.1,1.8 -1,0 -2.6,-0.8 -2.6,-1.5 0,-0.8 0.9,-2.6 0.9,-4.1 0,-0.3 0,-0.5 -0.3,-1 0.5,0.4 1.2,0.5 1.8,0.5 0.6,0 1.5,-0.3 1.8,-0.8 -3.1,0.9 -4.2,-0.9 -4.5,-2.4 -1.2,0.5 -2.3,0.1 -2.6,-0.8 -0.5,0.3 -1.2,0.4 -1.7,0.8 -0.5,-2.2 0.3,-2.7 3,-3.1 -0.4,-0.4 -0.5,-0.9 -0.5,-1.3 0,-1.3 1.4,-1.9 4.6,-1.9 1.4,0 2.3,0.5 2.1,1.2 0,0.5 -0.3,0.5 -0.3,0.8 1.7,0.5 2.2,1.9 2.2,3.3 0.1,2.5 -1.2,3 -1.2,6.1 z m -2.7,-7.4 c 0.5,0 0.9,-0.3 0.9,-0.8 0,-0.5 -0.4,-0.8 -0.9,-0.8 -0.5,0 -0.9,0.3 -0.9,0.8 0,0.6 0.4,0.8 0.9,0.8 z"
               id="path227"
               style="fill:#000000" />
            <path
               d="m 115.1,87.1 c -0.8,0 -1.9,-0.6 -2.2,-4.2 0.5,0.8 1,1.3 1.8,2.6 -0.5,-1.5 -0.8,-2.1 -1.3,-3.6 1.8,1.8 2.6,3.1 2.6,4.1 0,0.7 -0.4,1.1 -0.9,1.1 z"
               id="path229"
               style="fill:#000000" />
            <path
               d="m 118.5,50.3 v 1.5 c 0,1.3 -0.3,1.8 -1,1.8 -0.5,0 -1.3,-0.8 -1.8,-2.6 0,1.3 -0.8,2.6 -2.1,2.6 v -1.5 c 0,-3.9 0.8,-4.9 3.6,-4.9 2.1,0 3.1,1 4.1,4.9 -0.8,0 -1.8,0 -2.8,-1.8 z"
               id="path231"
               style="fill:#000000" />
            <path
               d="m 119,55.9 v 1.8 c 0,1 -0.3,1.8 -0.8,1.8 -0.8,0 -1.5,-1 -1.8,-3.1 -0.3,1.5 -1.3,2.8 -2.3,3.1 0,-3.3 0.3,-5.2 1.3,-5.9 0.5,1.3 1.5,1.5 2.3,1.5 1,0 1.8,-0.8 1.8,-1.8 1,0.8 1.8,2.1 2.3,4.4 -1,0.6 -2.6,-0.7 -2.8,-1.8 z"
               id="path233"
               style="fill:#000000" />
            <path
               d="m 121.8,72.7 -1,-1.5 -2.3,-2.8 -2.3,0.8 -1.3,1.3 h -0.5 l 0.5,-2.1 3.3,-2.1 -1.3,-5.7 c 0.3,0.3 0.5,0.3 1.3,0.3 0.5,0 0.8,0 1,-0.3 l 0.5,5.7 5.4,2.1 0.8,1.5 h -0.5 l -0.5,-0.8 -2.6,-0.8 2.1,1.8 0.3,1.8 h -0.5 l -0.8,-1.3 -2.8,-2.3 1.5,2.6 0.3,1.8 z"
               id="path235"
               style="fill:#000000" />
            <path
               d="m 117,84.3 c -0.5,0 -1.4,-0.3 -2.4,-2.6 0.8,0.5 0.5,0.3 2.1,1.3 -0.8,-0.8 -1.3,-1.3 -1.8,-2.3 2.1,1 3,1.9 3,3 -0.1,0.3 -0.3,0.6 -0.9,0.6 z"
               id="path237"
               style="fill:#000000" />
            <path
               d="m 125.4,42.8 c -0.5,2.6 -1,6.2 -2.1,8.5 -1,0 -1.8,-1.5 -1.8,-3.3 0,-1.8 1,-6.2 1.3,-8.8 0,2.6 1.6,3.6 2.6,3.6 z"
               id="path239"
               style="fill:#000000" />
            <path
               d="m 130.6,43.8 c -1,6.2 -3.9,15.7 -7.5,21.1 -0.5,-0.3 -0.8,-1 -0.8,-1.5 0,-1.3 0.5,-2.8 1.3,-5.2 1.3,-4.6 3.3,-11.1 3.9,-18.5 0.2,3.1 1.8,3.9 3.1,4.1 z"
               id="path241"
               style="fill:#000000" />
            <path
               d="m 123.4,29.7 c 0,-1.8 0.8,-2.6 1.5,-2.6 0.8,0 1,0.8 1,4.6 0,3.1 0,5.9 -0.5,9.3 -1,0 -2.3,-1.5 -2.3,-3.9 0,-1.5 0.3,-4.1 0.3,-7.4 z"
               id="path243"
               style="fill:#000000" />
            <path
               d="m 135.5,45.6 c -1,6.2 -4.4,16.5 -8.2,21.9 -0.5,-0.5 -0.8,-1 -0.8,-1.8 0,-1.3 0.3,-2.8 1,-4.9 1.8,-4.9 4.4,-12.4 5.2,-19.8 0.2,3.1 1.2,4.4 2.8,4.6 z"
               id="path245"
               style="fill:#000000" />
            <path
               d="m 128.8,20.9 c 0.8,0 1.3,1 2.1,7.5 -2.3,0 -3.1,-2.6 -3.1,-4.9 -0.1,-1.8 0.2,-2.6 1,-2.6 z"
               id="path247"
               style="fill:#000000" />
            <path
               d="m 131.1,30.4 v 4.4 c 0,2.1 0,4.1 -0.3,6.7 -1.5,0 -3.1,-1.5 -3.1,-3.9 0,-1.3 0.3,-3.3 0.3,-5.7 0,-1.5 0,-3.1 -0.3,-5.2 0.5,2.5 1.8,3.7 3.4,3.7 z"
               id="path249"
               style="fill:#000000" />
            <path
               d="m 132.4,26.3 c -0.5,-2.8 -1.3,-6.7 -3.1,-9 -0.3,-0.5 -0.5,-0.8 -0.5,-1.3 0,-0.5 0.5,-0.8 0.8,-0.8 0.8,0 1.5,0.8 2.1,1.5 2.3,3.3 3.6,7 4.1,13.6 -2.1,0.1 -2.9,-0.9 -3.4,-4 z"
               id="path251"
               style="fill:#000000" />
            <path
               d="m 140.3,46.1 c -1.3,9.3 -5.2,18.8 -9,25 -0.8,-0.3 -1.3,-0.8 -1.3,-1.5 0,-1.3 0.8,-3.1 1.5,-5.4 1.5,-4.4 4.6,-10.8 5.9,-22.4 0.1,3.1 1.4,4.3 2.9,4.3 z"
               id="path253"
               style="fill:#000000" />
            <path
               d="m 137.3,26.3 c -0.6,-5.2 -2.6,-9 -4.6,-11.1 -1,-1 -1.8,-1.3 -1.8,-1.8 0,-0.5 0.5,-0.8 1,-0.8 1.5,0 4.4,2.3 6.4,6.2 1.3,2.8 2.6,7.2 2.8,11.8 -2,0.1 -3.5,-1.2 -3.8,-4.3 z"
               id="path255"
               style="fill:#000000" />
            <path
               d="m 136,32.5 c 0.3,1 0.3,2.1 0.3,3.3 0,2.6 -0.3,5.2 -0.8,8 -2.3,-0.5 -2.6,-2.6 -2.6,-4.6 0,-1.3 0.3,-3.6 0.3,-5.4 0,-1.3 -0.3,-3.1 -0.5,-5.4 0.7,3.3 2,4.1 3.3,4.1 z"
               id="path257"
               style="fill:#000000" />
            <path
               d="m 144,56.2 c -2.1,6.7 -5.2,13.6 -9,18.3 -0.5,-0.3 -0.8,-0.5 -0.8,-1.3 0,-1 1.3,-3.1 2.6,-6.4 1.5,-4.4 3.3,-9 4.9,-16 -0.1,3.6 0.7,4.9 2.3,5.4 z"
               id="path259"
               style="fill:#000000" />
            <path
               d="m 141.1,32.8 c 0,3.3 0,7.2 -0.5,11.3 -2.3,-0.3 -2.6,-2.6 -2.6,-4.4 v -5.2 c 0,-1.8 0,-3.6 -0.3,-5.7 0.6,3.2 2.1,4 3.4,4 z"
               id="path261"
               style="fill:#000000" />
            <path
               d="m 140.9,70.9 c 0,-0.8 0.3,-1.5 0.5,-2.6 0.3,1.5 3.9,2.3 3.9,4.9 v 1 c 0.5,-1.3 1.8,-1.3 2.8,-1.3 2.6,0 3.5,0.1 3.9,-0.3 -0.5,2.3 -2.1,3.6 -4.4,3.6 -3.1,0.1 -6.7,-2 -6.7,-5.3 z"
               id="path263"
               style="fill:#000000" />
            <path
               d="m 146.5,33.8 v 3.6 c 0,4.9 -0.5,11.3 -2.1,16.7 -1.3,-0.5 -2.3,-1.8 -2.3,-4.6 0,-0.8 0,-1.8 0.3,-2.6 0.3,-1.8 0.8,-6.2 0.8,-11.3 0,-1.8 0,-3.9 -0.3,-5.9 0.8,3.3 2.3,4.1 3.6,4.1 z"
               id="path265"
               style="fill:#000000" />
            <path
               d="m 143.2,66.8 c 0,-0.5 0,-1 0.3,-1.3 0.8,1.5 4.4,1.8 4.4,4.4 0.5,-2.3 4.1,-1.3 5.7,-2.8 -0.3,3.1 -1.8,4.1 -4.4,4.1 -3.4,-0.1 -6,-1.6 -6,-4.4 z"
               id="path267"
               style="fill:#000000" />
            <path
               d="m 144.7,62.6 c 0,-0.5 0,-0.8 0.3,-1.3 1,1.5 3.6,1.5 3.6,3.6 0.8,-2.1 3.6,-1.3 4.9,-2.3 -0.3,2.6 -1.8,4.1 -4.1,4.1 -2.9,0.1 -4.7,-1.7 -4.7,-4.1 z"
               id="path269"
               style="fill:#000000" />
            <path
               d="m 149.4,62.4 c -2.3,0 -3.7,-2.1 -3.6,-4.6 0.5,0.5 3.6,1 3.3,3.6 0.3,-2.6 2.6,-2.1 3.6,-3.3 v 1.3 c 0,1.4 -1.3,3 -3.3,3 z"
               id="path271"
               style="fill:#000000" />
            <path
               d="m 149.4,58.3 c -0.8,-0.3 -1.5,-1.3 -1.5,-2.6 0,-1.5 1,-2.8 1,-4.9 1.3,1.3 2.3,3.1 2.3,4.6 0,1.6 -1.1,2.6 -1.8,2.9 z"
               id="path273"
               style="fill:#000000" />
            <path
               d="m 76.7,33.9 c 1.3,0 2.8,-0.8 3.6,-4.1 -0.3,2.1 -0.3,4.1 -0.3,5.9 0,5.2 0.5,9.5 0.8,11.3 0.3,0.8 0.3,1.8 0.3,2.6 0,2.8 -1,4.1 -2.3,4.6 -1.5,-5.4 -2.3,-11.8 -2.3,-16.7 -0.1,-1.3 -0.1,-2.6 0.2,-3.6 z"
               id="path275"
               style="fill:#000000" />
          </g>
        </g>
      </g>
      <text
         xml:space="preserve"
         id="text289"
         style="fill:black;fill-opacity:1;line-height:1.25;stroke:none;font-family:sans-serif;font-style:normal;font-weight:normal;font-size:40px;white-space:pre;shape-inside:url(#rect291);" />
      <text
         xml:space="preserve"
         style="font-style:normal;font-variant:normal;font-weight:normal;font-stretch:normal;font-size:51.3448px;line-height:1.25;font-family:'Ancizar Sans';-inkscape-font-specification:'Ancizar Sans';fill:#000000;fill-opacity:1;stroke:none;stroke-width:1.28362"
         x="13.349158"
         y="149.06863"
         id="text297"
         transform="scale(0.96063011,1.0409834)"><tspan
           sodipodi:role="line"
           x="13.349158"
           y="149.06863"
           id="tspan299"
           style="fill:#000000;stroke-width:1.28362">Departamento de Ingeniera de Sistemas e Industrial</tspan><tspan
           sodipodi:role="line"
           x="13.349158"
           y="213.24963"
           id="tspan301"
           style="fill:#000000;stroke-width:1.28362">Facultad de Ingeniera</tspan><tspan
           sodipodi:role="line"
           x="13.349158"
           y="277.43063"
           id="tspan303"
           style="fill:#000000;stroke-width:1.28362">Sede Bogot</tspan></text>
      <text
         xml:space="preserve"
         id="text305"
         style="fill:black;fill-opacity:1;line-height:1.25;stroke:none;font-family:sans-serif;font-style:normal;font-weight:normal;font-size:40px;white-space:pre;shape-inside:url(#rect307);" />
    </g>
  </g>
</svg>
